#N canvas 248 120 340 199 10;
#X obj 101 38 route \$1;
#X obj 101 61 t f f;
#X obj 17 113 + 0.1;
#X obj 17 89 tabread \$3-table-\$1-\$2;
#X obj 17 137 tabwrite \$3-table-\$1-\$2;
#X obj 17 159 table \$3-table-\$1-\$2 25;
#X obj 101 16 r \$3-fill-\$2;
#X connect 0 0 1 0;
#X connect 1 0 3 0;
#X connect 1 1 4 1;
#X connect 2 0 4 0;
#X connect 3 0 2 0;
#X connect 6 0 0 0;
