#N canvas 465 279 534 326 10;
#X obj 7 58 route \$1;
#X obj 7 83 t f f;
#X obj 7 129 + 1;
#X obj 7 33 r fill_table-\$2;
#X obj 165 8 r save-tables;
#X obj 165 57 \$1;
#X obj 210 57 symbol \$2;
#X obj 165 81 pack f s;
#X obj 165 30 t b b;
#X obj 166 149 r load-tables;
#X obj 166 198 \$1;
#X obj 211 198 symbol \$2;
#X obj 166 222 pack f s;
#X obj 166 171 t b b;
#X obj 9 181 r clear-tables;
#X msg 9 203 const 0;
#X obj 9 225 s \$2-\$1;
#X obj 7 153 tabwrite \$2-\$1;
#X obj 7 107 tabread \$2-\$1;
#X obj 6 10 table \$2-\$1 72;
#X msg 165 105 \; \$2-\$1 write ../transition_tables/\$2-\$1.txt;
#X msg 166 245 \; \$2-\$1 read ../transition_tables/\$2-\$1.txt;
#X connect 0 0 1 0;
#X connect 1 0 18 0;
#X connect 1 1 17 1;
#X connect 2 0 17 0;
#X connect 3 0 0 0;
#X connect 4 0 8 0;
#X connect 5 0 7 0;
#X connect 6 0 7 1;
#X connect 7 0 20 0;
#X connect 8 0 5 0;
#X connect 8 1 6 0;
#X connect 9 0 13 0;
#X connect 10 0 12 0;
#X connect 11 0 12 1;
#X connect 12 0 21 0;
#X connect 13 0 10 0;
#X connect 13 1 11 0;
#X connect 14 0 15 0;
#X connect 15 0 16 0;
#X connect 18 0 2 0;
