#N canvas 588 88 778 295 10;
#X declare -lib jasch_lib;
#X declare -path ../abs;
#X obj 245 -678 bng 50 250 50 0 make_song set-make_song empty 17 7
0 10 -262144 -261234 -1;
#X obj -475 -618 cnv 15 770 30 empty verse1_canvas ||: C:maj Bb:maj C:maj G:maj :||
5 15 0 14 -66577 -262144 0;
#X obj -475 -587 cnv 15 770 30 empty chorus1_canvas || B:maj G:maj A:min F:maj ||
5 15 0 14 -66577 -262144 0;
#X obj -475 -678 hradio 50 1 0 12 key_root set-key_root empty 0 -8
0 10 -262144 -261234 -1 0;
#X text -453 -661 C;
#X text -405 -661 Db;
#X text -353 -661 D;
#X text -307 -661 Eb;
#X text -157 -661 Gb;
#X text -107 -661 G;
#X text -57 -661 Ab;
#X text -4 -661 A;
#X text -253 -661 E;
#X text 46 -661 Bb;
#X text 96 -661 B;
#X text -203 -661 F;
#X obj 135 -678 hradio 50 1 0 2 key_mode set-key_mode empty 0 -8 0
10 -262144 -261234 -1 0;
#X text 200 -662 min;
#X text 150 -662 maj;
#X obj -476 -488 cnv 15 320 70 empty empty empty 20 12 0 14 -261234
-66577 0;
#X obj -462 -443 bng 15 250 50 0 save-tables empty empty 17 7 0 10
-262144 -1 -1;
#X obj -462 -483 bng 15 250 50 0 clear-tables empty empty 17 7 0 10
-262144 -1 -1;
#X obj -462 -463 bng 15 250 50 0 analyze_folder empty empty 17 7 0
10 -262144 -1 -1;
#X text -441 -484 clear previous analysis;
#X text -441 -464 analyze folder (it might take a few seconds!);
#X text 258 -666 make;
#X text 257 -654 song;
#X obj -475 -556 cnv 15 770 30 empty verse2_canvas || C:maj Bb:maj C:maj G:maj ||
5 15 0 14 -66577 -262144 0;
#X obj -475 -525 cnv 15 770 30 empty chorus2_canvas ||: B:maj G:maj A:min F:maj :|| C:maj ||
5 15 0 14 -66577 -262144 0;
#X obj -146 -488 cnv 15 220 70 empty empty empty 20 12 0 14 -261234
-66577 0;
#X obj -142 -484 bng 15 250 50 0 write_song empty empty 17 7 0 10 -262144
-1 -1;
#X obj -142 -464 bng 15 250 50 0 read_song empty empty 17 7 0 10 -262144
-1 -1;
#X text -121 -466 read song from textfile (soon);
#X obj 84 -488 cnv 15 210 70 empty empty empty 20 12 0 14 -261234 -66577
0;
#X obj 231 -458 nbx 5 14 -1e+37 1e+37 0 0 strumming_speed set-strumming_speed
empty 0 -8 0 10 -262144 -1 -1 11 256;
#X obj 231 -477 nbx 5 14 -1e+37 1e+37 0 0 tempo set-tempo empty 0 -8
0 10 -262144 -1 -1 290 256;
#X text 190 -480 tempo;
#X obj 95 -478 tgl 50 0 play set-play empty 17 7 0 10 -262144 -1 -1
0 1;
#X text 107 -468 play;
#X text 107 -453 song;
#X obj 121 -614 cnv 15 170 115 empty empty empty 20 12 0 14 -261234
-66577 0;
#X symbolatom 125 -592 3 0 0 0 - set-str1 str1;
#X symbolatom 145 -592 3 0 0 0 - set-str2 str2;
#X symbolatom 165 -592 3 0 0 0 - set-str3 str3;
#X symbolatom 185 -592 3 0 0 0 - set-str4 str4;
#X symbolatom 205 -592 3 0 0 0 - set-str5 str5;
#X symbolatom 225 -592 3 0 0 0 - set-str6 str6;
#X symbolatom 245 -592 3 0 0 0 - set-str7 str7;
#X symbolatom 265 -592 3 0 0 0 - set-str8 str8;
#X text 126 -612 strumming pattern;
#X text 126 -573 d - down;
#X text 126 -560 u - up;
#X text 126 -544 r - ring;
#X text 126 -530 dx - stop downward;
#X text 126 -516 ux - stop upwards;
#X obj -146 -444 cnv 15 220 25 empty empty empty 20 12 0 14 -258113
-66577 0;
#N canvas 289 215 779 432 notes 0;
#X text 10 9 SIMPLE SONG MAKER creates pop song's chord structures
based on corpus analysis of transcriptions downloaded from the internet.
The user could provide any corpus for analysis as separate textfiles
\, using the so-called Harte's notation (Harte \, 2005) \, a human/computer
readable notation for chord transcriptions (see "./files/chords_txt"
for an example of the formatting).;
#X text 400 49 (2) Press the "make song" button.;
#X text 400 29 (1) Select a key and mode for a new song.;
#X text 400 69 (3) Press the "play" toggle to start playing the song
back.;
#X text 400 89 The playback system outputs guitar-style strumming patterns
as midi-out events (more below). The user can choose the tempo of the
song and the strumming speed (a delay time between picking different
strings on a single stroke).;
#X text 400 209 d - down-stroke;
#X text 400 229 u - up-stroke;
#X text 400 249 r - let ring...;
#X text 550 209 dx - stop strings downwards;
#X text 550 229 ux - stop string upwards;
#X text 400 150 The user can also create a strumming pattern in quaver
resolution (8th's). She should create a sequence with the series of
symbols listed in the main window. This vocabulary will be expanded
in the near future:;
#X text 400 269 (4) The user can export the last generated song to
a textfile. The format of the textfile will be identical to that seen
on screen. In the near future \, it will also be possible to import
songs from textfiles;
#X text 400 329 (5) for analysis of a new or different corpus \, add
textfiles to the folder "./files/chords_txt" and use the buttons on
the lower right side of the main window.;
#X text 30 201 verse - verse - chorus - verse - chorus - chorus;
#X text 10 230 For the song generation \, a very simple sets of rules
is applied: (a) all verses start and end with the tonic chord (but
it is removed at the end to make a loop. (b) all choruses start with
any chord different from the tonic and last 4 bars. (c) all songs end
with the tonic chord.;
#X text 500 398 angel.faraldo@upf.edu --- Barcelona \, 2015;
#X text 10 310 MIDI OUTPUT;
#X text 10 330 SIMPLE SONG MAKER outputs midi note events in a guitar-like
manner. For that \, it uses channels 1-6 (one for each separate string).
You need to configure an external midi synthesizer to hear the output.
;
#X text 10 390 This program has been tested on Pd-extended 0.43.4 on
OSX and Ubuntu.;
#X text 10 109 By default \, results from the last corpus analyzed
are called on load \, so the user does not need to care about analyzing
a corpus before use.;
#X text 10 160 At the time being \, a single song structure is used
\, something that will be expanded in future versions:;
#X text 400 9 USAGE;
#X restore -140 -439 pd notes and instructions;
#N canvas 886 214 417 161 guts 0;
#X obj -107 -468 import jasch_lib;
#N canvas 53 117 442 231 krumhansl_profiles 0;
#X msg 5 124 6.33 2.68 3.52 5.38 2.6 3.53 2.54 4.75 3.98 2.69 3.34
3.17;
#X msg 32 44 6.35 2.23 3.48 2.33 4.38 4.09 2.52 5.19 2.39 3.66 2.29
2.88;
#X obj 5 23 t b b;
#X obj 5 144 normalize;
#X obj 32 64 normalize;
#X obj 5 2 r reset;
#X obj 32 84 tabset major;
#X obj 31 104 table major 12;
#X obj 5 164 tabset minor;
#X obj 5 184 table minor 12;
#X connect 0 0 3 0;
#X connect 1 0 4 0;
#X connect 2 0 0 0;
#X connect 2 1 1 0;
#X connect 3 0 8 0;
#X connect 4 0 6 0;
#X connect 5 0 2 0;
#X restore -243 -408 pd krumhansl_profiles;
#X obj -43 -428 table profile 12;
#N canvas 545 149 390 627 calculate_profiles_from_songs 0;
#X obj 43 284 textfile;
#X floatatom 228 195 5 0 0 0 - - -;
#X obj 8 80 bng 15 250 50 0 empty empty empty 17 7 0 10 -262144 -1
-1;
#X obj -14 358 unpack s s;
#X obj -14 336 strtok :;
#X obj -14 313 tosymbol;
#N canvas 508 325 457 294 root 0;
#X obj 15 11 inlet;
#X obj 15 33 sel C Db D Eb E F Gb G Ab A Bb B;
#X msg 15 139 0;
#X msg 45 139 1;
#X msg 75 139 2;
#X msg 105 139 3;
#X msg 135 139 4;
#X msg 165 139 5;
#X msg 195 139 6;
#X msg 225 139 7;
#X msg 255 139 8;
#X msg 285 139 9;
#X msg 315 139 10;
#X msg 345 139 11;
#X obj 15 267 outlet;
#X msg 271 50 unrecognized pitch class;
#X obj 271 71 print ERROR;
#X connect 0 0 1 0;
#X connect 1 0 2 0;
#X connect 1 1 3 0;
#X connect 1 2 4 0;
#X connect 1 3 5 0;
#X connect 1 4 6 0;
#X connect 1 5 7 0;
#X connect 1 6 8 0;
#X connect 1 7 9 0;
#X connect 1 8 10 0;
#X connect 1 9 11 0;
#X connect 1 10 12 0;
#X connect 1 11 13 0;
#X connect 1 12 15 0;
#X connect 2 0 14 0;
#X connect 3 0 14 0;
#X connect 4 0 14 0;
#X connect 5 0 14 0;
#X connect 6 0 14 0;
#X connect 7 0 14 0;
#X connect 8 0 14 0;
#X connect 9 0 14 0;
#X connect 10 0 14 0;
#X connect 11 0 14 0;
#X connect 12 0 14 0;
#X connect 13 0 14 0;
#X connect 15 0 16 0;
#X restore -14 382 pd root;
#X obj -14 487 +;
#X obj -14 441 symbol;
#X obj -14 417 t b f;
#X obj -14 508 mod 12;
#X obj -14 529 t f f;
#X obj -14 283 until;
#X msg -14 237 read \$1 cr \, rewind \, bang;
#X obj -14 260 route bang;
#X obj -14 168 t s b;
#X obj -14 574 + 0.1;
#X msg -1 58 refresh;
#X obj 96 331 normalize;
#X obj -14 34 openpanel;
#X obj -14 15 bng 15 250 50 0 empty empty empty 17 7 0 10 -262144 -1
-1;
#X text 52 57 or get all content of a folder;
#X text 29 79 and retrieve files individually;
#N canvas 177 94 613 328 type 0;
#X obj 15 19 inlet;
#X obj 15 267 outlet;
#X obj 339 129 print ERROR;
#X msg 339 108 unrecognized chord type;
#X msg 15 159 0 \, 4 \, 7;
#X msg 132 159 0 \, 4 \, 8;
#X msg 192 159 0 \, 3 \, 6;
#X msg 312 159 0 \, 4 \, 7 \, 10;
#X msg 253 159 0 \, 5 \, 7;
#X msg 73 159 0 \, 3 \, 7;
#X obj 15 43 sel maj min aug dim sus4;
#X obj 312 60 fromsymbol;
#X obj 312 86 sel 7;
#X connect 0 0 10 0;
#X connect 3 0 2 0;
#X connect 4 0 1 0;
#X connect 5 0 1 0;
#X connect 6 0 1 0;
#X connect 7 0 1 0;
#X connect 8 0 1 0;
#X connect 9 0 1 0;
#X connect 10 0 4 0;
#X connect 10 1 9 0;
#X connect 10 2 5 0;
#X connect 10 3 6 0;
#X connect 10 4 8 0;
#X connect 10 5 11 0;
#X connect 11 0 12 0;
#X connect 12 0 7 0;
#X connect 12 1 3 0;
#X restore -14 463 pd type;
#X obj 7 142 print filename;
#X obj 96 351 tabset profile;
#X obj 96 311 tabdump profile;
#X msg 13 190 \; profile const 0 \; reset bang;
#X obj 88 371 s end_file;
#X obj -14 596 tabwrite profile;
#X obj -14 551 tabread profile;
#X obj 51 396 s chord_type;
#X obj 51 418 s chord_root;
#X obj 243 77 metro 1000;
#X obj 243 9 r analyze_folder;
#X obj 255 120 ==;
#X obj 255 98 f 0;
#X obj 284 98 + 1;
#X obj 254 142 sel 1;
#X msg 254 162 0;
#X obj 243 32 t b b;
#X msg 282 32 0;
#X obj -3 119 get_files ../testfiles/txt-chords/*.txt;
#X connect 0 0 5 0;
#X connect 0 1 12 1;
#X connect 0 1 26 0;
#X connect 0 1 28 0;
#X connect 2 0 42 0;
#X connect 3 0 6 0;
#X connect 3 1 31 0;
#X connect 3 1 8 1;
#X connect 4 0 3 0;
#X connect 5 0 4 0;
#X connect 6 0 9 0;
#X connect 6 0 32 0;
#X connect 7 0 10 0;
#X connect 8 0 23 0;
#X connect 9 0 8 0;
#X connect 9 1 7 1;
#X connect 10 0 11 0;
#X connect 11 0 30 0;
#X connect 11 1 29 1;
#X connect 12 0 0 0;
#X connect 13 0 14 0;
#X connect 14 0 12 0;
#X connect 14 1 0 0;
#X connect 15 0 13 0;
#X connect 15 1 27 0;
#X connect 16 0 29 0;
#X connect 17 0 42 0;
#X connect 18 0 25 0;
#X connect 19 0 15 0;
#X connect 20 0 19 0;
#X connect 23 0 7 0;
#X connect 26 0 18 0;
#X connect 30 0 16 0;
#X connect 33 0 36 0;
#X connect 33 0 42 0;
#X connect 34 0 40 0;
#X connect 35 0 38 0;
#X connect 36 0 37 0;
#X connect 36 0 35 0;
#X connect 37 0 36 1;
#X connect 38 0 39 0;
#X connect 39 0 33 0;
#X connect 40 0 33 0;
#X connect 40 1 41 0;
#X connect 40 1 17 0;
#X connect 41 0 36 1;
#X connect 42 0 15 0;
#X connect 42 0 24 0;
#X connect 42 1 1 0;
#X connect 42 1 35 1;
#X restore -243 -428 pd calculate_profiles_from_songs;
#N canvas 240 109 433 750 estimate_key_of_songs 0;
#X obj 222 91 t b b;
#X obj 214 273 t l;
#X obj 131 356 list;
#X obj 155 167 tabdump;
#X obj 148 188 t b l;
#X obj 18 33 sel 12;
#X msg 220 48 1 2 3 4 5 6 7 8 9 10 11 12;
#X obj 73 33 t f b;
#X obj 18 75 once;
#X obj 125 272 list prepend;
#X obj 18 96 del 1;
#X obj 131 377 sort;
#X obj 125 335 sel 24;
#X obj 125 293 t l l;
#X obj 111 401 t l f;
#X obj 123 447 ==;
#X obj 131 557 list;
#X obj 83 447 sel 1;
#X obj 83 512 f 1;
#X obj 113 512 + 1;
#X msg 98 490 1;
#X obj 131 534 t b f;
#X obj 101 582 list split;
#N canvas 228 175 765 329 estimation 0;
#X obj 16 13 inlet;
#X obj 16 35 select 0 1 2 3 4 5 6 7 8 9 10 11 12 13 14 15 16 17 18
19 20 21 22 23;
#X msg 16 148 B;
#X msg 46 148 Bb;
#X msg 76 148 A;
#X msg 106 148 Ab;
#X msg 136 148 G;
#X msg 166 148 Gb;
#X msg 196 148 F;
#X msg 226 148 E;
#X msg 256 148 Eb;
#X msg 286 148 D;
#X msg 316 148 Db;
#X msg 346 148 C;
#X msg 376 148 Bm;
#X msg 406 148 Bbm;
#X msg 436 148 Am;
#X msg 466 148 Abm;
#X msg 496 148 Gm;
#X msg 526 148 Gbm;
#X msg 556 148 Fm;
#X msg 586 148 Em;
#X msg 616 148 Ebm;
#X msg 646 148 Dm;
#X msg 676 148 Dbm;
#X msg 706 148 Cm;
#X obj 16 273 tosymbol;
#X obj 16 294 outlet;
#X connect 0 0 1 0;
#X connect 1 0 2 0;
#X connect 1 1 3 0;
#X connect 1 2 4 0;
#X connect 1 3 5 0;
#X connect 1 4 6 0;
#X connect 1 5 7 0;
#X connect 1 6 8 0;
#X connect 1 7 9 0;
#X connect 1 8 10 0;
#X connect 1 9 11 0;
#X connect 1 10 12 0;
#X connect 1 11 13 0;
#X connect 1 12 14 0;
#X connect 1 13 15 0;
#X connect 1 14 16 0;
#X connect 1 15 17 0;
#X connect 1 16 18 0;
#X connect 1 17 19 0;
#X connect 1 18 20 0;
#X connect 1 19 21 0;
#X connect 1 20 22 0;
#X connect 1 21 23 0;
#X connect 1 22 24 0;
#X connect 1 23 25 0;
#X connect 2 0 26 0;
#X connect 3 0 26 0;
#X connect 4 0 26 0;
#X connect 5 0 26 0;
#X connect 6 0 26 0;
#X connect 7 0 26 0;
#X connect 8 0 26 0;
#X connect 9 0 26 0;
#X connect 10 0 26 0;
#X connect 11 0 26 0;
#X connect 12 0 26 0;
#X connect 13 0 26 0;
#X connect 14 0 26 0;
#X connect 15 0 26 0;
#X connect 16 0 26 0;
#X connect 17 0 26 0;
#X connect 18 0 26 0;
#X connect 19 0 26 0;
#X connect 20 0 26 0;
#X connect 21 0 26 0;
#X connect 22 0 26 0;
#X connect 23 0 26 0;
#X connect 24 0 26 0;
#X connect 25 0 26 0;
#X connect 26 0 27 0;
#X restore 158 648 pd estimation;
#X obj 101 626 route bang;
#X obj 73 11 drip 1;
#X obj 125 314 list length;
#X obj 101 604 drip;
#X obj 111 422 drip;
#X obj 165 670 s key_estimation;
#X msg 18 117 set minor \, bang;
#X obj 39 54 r reset;
#X obj 222 70 r end_file;
#X msg 155 145 set major \, bang;
#X obj 249 174 tabdump profile;
#X obj 194 249 r reset;
#X obj 98 468 r reset;
#X obj 158 690 print ESTIMATION;
#X obj 99 209 list_rotate;
#X obj 117 230 euclidean_distance;
#X connect 0 0 33 0;
#X connect 0 1 34 0;
#X connect 1 0 9 1;
#X connect 2 0 11 0;
#X connect 3 0 4 0;
#X connect 4 0 6 0;
#X connect 4 1 38 1;
#X connect 5 0 8 0;
#X connect 6 0 25 0;
#X connect 7 0 5 0;
#X connect 7 1 38 0;
#X connect 8 0 10 0;
#X connect 9 0 1 0;
#X connect 9 0 13 0;
#X connect 10 0 30 0;
#X connect 11 0 14 0;
#X connect 11 1 16 1;
#X connect 12 0 2 0;
#X connect 13 0 26 0;
#X connect 13 1 2 1;
#X connect 14 0 28 0;
#X connect 14 1 15 1;
#X connect 15 0 17 0;
#X connect 16 0 22 0;
#X connect 17 0 18 0;
#X connect 18 0 19 0;
#X connect 18 0 21 0;
#X connect 19 0 18 1;
#X connect 20 0 18 1;
#X connect 21 0 16 0;
#X connect 21 1 22 1;
#X connect 22 0 27 0;
#X connect 23 0 29 0;
#X connect 23 0 37 0;
#X connect 24 1 23 0;
#X connect 25 0 7 0;
#X connect 26 0 12 0;
#X connect 27 0 24 0;
#X connect 28 0 15 0;
#X connect 30 0 3 0;
#X connect 31 0 8 1;
#X connect 32 0 0 0;
#X connect 33 0 3 0;
#X connect 34 0 39 1;
#X connect 35 0 9 1;
#X connect 36 0 20 0;
#X connect 38 0 39 0;
#X connect 39 0 9 0;
#X restore -109 -408 pd estimate_key_of_songs;
#N canvas 67 88 565 819 make_1st_order_chord_transition_tables 0;
#X obj 124 -336 sel maj min aug dim sus4;
#X obj 265 -315 fromsymbol;
#X obj 265 -293 sel 7;
#X msg 152 -270 1;
#X msg 180 -270 2;
#X msg 208 -270 3;
#X msg 236 -270 4;
#X msg 265 -270 5;
#X msg 124 -270 0;
#X obj 124 -227 * 12;
#X obj 137 -204 r key_estimation;
#X obj 12 -50 -;
#X obj 87 -130 t l;
#X obj 33 -164 list prepend;
#X obj 12 -86 drip 0;
#X obj 182 33 prepend;
#X obj 12 -110 list;
#X obj 182 -40 t l;
#X obj 124 -64 list prepend;
#X obj 103 -18 drip 0;
#X obj 103 -41 list;
#X obj 12 -25 mod 12;
#X obj 88 4 +;
#X obj 188 -158 key2pc;
#X obj 182 100 pack f f;
#X obj 243 100 t f;
#X msg 182 342 \$2 \$1;
#X obj 276 382 s;
#X obj 291 109 sel 0 1;
#X obj 391 118 loadbang;
#X obj 291 177 makefilename fill_table-%s;
#X msg 391 142 symbol minor;
#X msg 291 141 symbol major;
#X obj 182 59 swap;
#X obj 247 205 r key_estimation;
#X obj 182 319 spigot;
#X msg 247 292 0;
#X obj 247 228 t b b;
#X obj 215 264 once;
#X msg 215 292 1;
#X obj 182 122 t b l;
#X obj 124 -358 r chord_type;
#X obj 33 -357 r chord_root;
#X obj 137 -181 t b b b s;
#X obj 291 86 change -1234;
#X text 61 381 we could print transitions here...;
#X connect 0 0 8 0;
#X connect 0 1 3 0;
#X connect 0 2 4 0;
#X connect 0 3 5 0;
#X connect 0 4 6 0;
#X connect 0 5 1 0;
#X connect 1 0 2 0;
#X connect 2 0 7 0;
#X connect 3 0 9 0;
#X connect 4 0 9 0;
#X connect 5 0 9 0;
#X connect 6 0 9 0;
#X connect 7 0 9 0;
#X connect 8 0 9 0;
#X connect 9 0 18 0;
#X connect 10 0 43 0;
#X connect 11 0 21 0;
#X connect 12 0 13 1;
#X connect 13 0 12 0;
#X connect 13 0 16 1;
#X connect 14 0 11 0;
#X connect 15 0 33 0;
#X connect 16 0 14 0;
#X connect 17 0 18 1;
#X connect 18 0 17 0;
#X connect 18 0 20 1;
#X connect 19 0 22 1;
#X connect 20 0 19 0;
#X connect 21 0 22 0;
#X connect 22 0 15 0;
#X connect 23 0 11 1;
#X connect 23 1 15 1;
#X connect 24 0 25 0;
#X connect 24 0 40 0;
#X connect 25 0 24 1;
#X connect 26 0 27 0;
#X connect 28 0 32 0;
#X connect 28 1 31 0;
#X connect 29 0 31 0;
#X connect 30 0 27 1;
#X connect 31 0 30 0;
#X connect 32 0 30 0;
#X connect 33 0 24 0;
#X connect 33 1 44 0;
#X connect 34 0 37 0;
#X connect 35 0 26 0;
#X connect 36 0 35 1;
#X connect 37 0 36 0;
#X connect 37 1 38 1;
#X connect 38 0 39 0;
#X connect 39 0 35 1;
#X connect 40 0 38 0;
#X connect 40 1 35 0;
#X connect 41 0 0 0;
#X connect 42 0 13 0;
#X connect 43 0 13 1;
#X connect 43 0 18 1;
#X connect 43 1 16 0;
#X connect 43 2 20 0;
#X connect 43 3 23 0;
#X connect 44 0 28 0;
#X restore -243 -388 pd make_1st_order_chord_transition_tables;
#N canvas 666 88 293 678 transition_tables 0;
#X obj 25 325 tab72 12 minor;
#X obj 25 50 tab72 1 minor;
#X obj 25 25 tab72 0 minor;
#X obj 25 75 tab72 2 minor;
#X obj 25 100 tab72 3 minor;
#X obj 25 125 tab72 4 minor;
#X obj 25 150 tab72 5 minor;
#X obj 25 175 tab72 6 minor;
#X obj 25 200 tab72 7 minor;
#X obj 25 225 tab72 8 minor;
#X obj 25 250 tab72 9 minor;
#X obj 25 275 tab72 10 minor;
#X obj 25 300 tab72 11 minor;
#X obj 25 350 tab72 13 minor;
#X obj 25 375 tab72 14 minor;
#X obj 25 400 tab72 15 minor;
#X obj 25 425 tab72 16 minor;
#X obj 25 450 tab72 17 minor;
#X obj 25 475 tab72 18 minor;
#X obj 25 500 tab72 19 minor;
#X obj 25 525 tab72 20 minor;
#X obj 25 550 tab72 21 minor;
#X obj 25 575 tab72 22 minor;
#X obj 25 600 tab72 23 minor;
#X obj 25 625 tab72 24 minor;
#X obj 25 650 tab72 25 minor;
#X obj 25 675 tab72 26 minor;
#X obj 25 700 tab72 27 minor;
#X obj 25 725 tab72 28 minor;
#X obj 25 750 tab72 29 minor;
#X obj 25 775 tab72 30 minor;
#X obj 25 800 tab72 31 minor;
#X obj 25 825 tab72 32 minor;
#X obj 25 850 tab72 33 minor;
#X obj 25 875 tab72 34 minor;
#X obj 25 900 tab72 35 minor;
#X obj 25 925 tab72 36 minor;
#X obj 25 950 tab72 37 minor;
#X obj 25 975 tab72 38 minor;
#X obj 25 1000 tab72 39 minor;
#X obj 25 1025 tab72 40 minor;
#X obj 25 1050 tab72 41 minor;
#X obj 25 1075 tab72 42 minor;
#X obj 25 1100 tab72 43 minor;
#X obj 25 1125 tab72 44 minor;
#X obj 25 1150 tab72 45 minor;
#X obj 25 1175 tab72 46 minor;
#X obj 25 1200 tab72 47 minor;
#X obj 25 1225 tab72 48 minor;
#X obj 25 1250 tab72 49 minor;
#X obj 25 1275 tab72 50 minor;
#X obj 25 1300 tab72 51 minor;
#X obj 25 1325 tab72 52 minor;
#X obj 25 1350 tab72 53 minor;
#X obj 25 1375 tab72 54 minor;
#X obj 25 1400 tab72 55 minor;
#X obj 25 1425 tab72 56 minor;
#X obj 25 1450 tab72 57 minor;
#X obj 25 1475 tab72 58 minor;
#X obj 25 1500 tab72 59 minor;
#X obj 25 1525 tab72 60 minor;
#X obj 25 1550 tab72 61 minor;
#X obj 25 1575 tab72 62 minor;
#X obj 25 1600 tab72 63 minor;
#X obj 25 1625 tab72 64 minor;
#X obj 25 1650 tab72 65 minor;
#X obj 25 1675 tab72 66 minor;
#X obj 25 1700 tab72 67 minor;
#X obj 25 1725 tab72 68 minor;
#X obj 25 1750 tab72 69 minor;
#X obj 25 1775 tab72 70 minor;
#X obj 25 1800 tab72 71 minor;
#X obj 135 25 tab72 0 major;
#X obj 135 50 tab72 1 major;
#X obj 135 75 tab72 2 major;
#X obj 135 100 tab72 3 major;
#X obj 135 125 tab72 4 major;
#X obj 135 150 tab72 5 major;
#X obj 135 175 tab72 6 major;
#X obj 135 200 tab72 7 major;
#X obj 135 225 tab72 8 major;
#X obj 135 250 tab72 9 major;
#X obj 135 275 tab72 10 major;
#X obj 135 300 tab72 11 major;
#X obj 135 325 tab72 12 major;
#X obj 135 350 tab72 13 major;
#X obj 135 375 tab72 14 major;
#X obj 135 400 tab72 15 major;
#X obj 135 425 tab72 16 major;
#X obj 135 450 tab72 17 major;
#X obj 135 475 tab72 18 major;
#X obj 135 500 tab72 19 major;
#X obj 135 525 tab72 20 major;
#X obj 135 550 tab72 21 major;
#X obj 135 575 tab72 22 major;
#X obj 135 600 tab72 23 major;
#X obj 135 625 tab72 24 major;
#X obj 135 650 tab72 25 major;
#X obj 135 675 tab72 26 major;
#X obj 135 700 tab72 27 major;
#X obj 135 725 tab72 28 major;
#X obj 135 750 tab72 29 major;
#X obj 135 775 tab72 30 major;
#X obj 135 800 tab72 31 major;
#X obj 135 825 tab72 32 major;
#X obj 135 850 tab72 33 major;
#X obj 135 875 tab72 34 major;
#X obj 135 900 tab72 35 major;
#X obj 135 925 tab72 36 major;
#X obj 135 950 tab72 37 major;
#X obj 135 975 tab72 38 major;
#X obj 135 1000 tab72 39 major;
#X obj 135 1025 tab72 40 major;
#X obj 135 1050 tab72 41 major;
#X obj 135 1075 tab72 42 major;
#X obj 135 1100 tab72 43 major;
#X obj 135 1125 tab72 44 major;
#X obj 135 1150 tab72 45 major;
#X obj 135 1175 tab72 46 major;
#X obj 135 1200 tab72 47 major;
#X obj 135 1225 tab72 48 major;
#X obj 135 1250 tab72 49 major;
#X obj 135 1275 tab72 50 major;
#X obj 135 1300 tab72 51 major;
#X obj 135 1325 tab72 52 major;
#X obj 135 1350 tab72 53 major;
#X obj 135 1375 tab72 54 major;
#X obj 135 1400 tab72 55 major;
#X obj 135 1425 tab72 56 major;
#X obj 135 1450 tab72 57 major;
#X obj 135 1475 tab72 58 major;
#X obj 135 1500 tab72 59 major;
#X obj 135 1525 tab72 60 major;
#X obj 135 1550 tab72 61 major;
#X obj 135 1575 tab72 62 major;
#X obj 135 1600 tab72 63 major;
#X obj 135 1625 tab72 64 major;
#X obj 135 1650 tab72 65 major;
#X obj 135 1675 tab72 66 major;
#X obj 135 1700 tab72 67 major;
#X obj 135 1725 tab72 68 major;
#X obj 135 1750 tab72 69 major;
#X obj 135 1775 tab72 70 major;
#X obj 135 1800 tab72 71 major;
#X restore 11 -388 pd transition_tables;
#N canvas 51 100 1133 716 generate_song 0;
#X obj 36 156 list-wrandom;
#X obj 105 43 route 0 1;
#X obj 159 -13 t f f;
#X obj -27 32 sel 0 1;
#X msg -27 54 0;
#X msg 3 54 12;
#X msg 36 86 stop;
#X obj 36 208 s next_table;
#X obj 78 -37 r next_table;
#X obj -42 81 f 0;
#X obj 78 -17 t b f;
#X obj 36 183 t f f;
#X obj 4 316 t l l;
#X obj 4 338 list length;
#X obj 4 361 sel 4;
#X obj 4 383 list;
#X obj 4 295 list prepend;
#X obj -23 274 sel 0;
#X obj 161 270 list prepend;
#X obj 161 292 t l l;
#X obj 188 315 list length;
#X msg -46 568 0;
#X obj 4 405 t b l;
#X obj 161 382 spigot;
#X obj 188 360 > 4;
#X obj 161 403 list split;
#X obj 188 336 t f f;
#X obj 218 383 - 1;
#X obj 295 440 sel 0;
#X obj 604 4 list;
#X obj 136 227 route 1 0;
#X obj 136 200 prepend;
#X obj 175 142 r song_part;
#X msg 188 183 0;
#X msg 295 462 1;
#X obj 295 483 s song_part;
#X msg 804 39 0 0 1 0 1 1 2;
#X obj 804 82 sel 0 1 2;
#X obj 625 -16 r chorus;
#X obj 161 588 s verse;
#X msg 105 85 set major-\$1 \, bang;
#X msg 130 65 set minor-\$1 \, bang;
#X obj 105 109 tabdump major-0;
#X obj -46 588 s song_done;
#X obj 36 133 delay 10;
#X obj 36 63 r song_done;
#X obj -42 -35 r make_song;
#X obj 230 248 r make_song;
#X obj 188 162 r make_song;
#X obj 926 -24 r song_done;
#X obj 610 559 l2s;
#X obj 445 -13 t b b;
#X msg 610 581 label \$1;
#X obj 820 144 list;
#X obj 767 133 list;
#X obj 841 122 r chorus;
#X obj 788 112 r verse;
#X obj 970 255 t l;
#X obj 926 -1 t b b;
#X obj 857 278 list;
#X obj 884 255 list prepend;
#X obj 857 302 s complete_song;
#X obj 604 96 list prepend;
#X obj 706 98 t l;
#X obj 673 72 r make_song;
#X obj 681 43 list length;
#X obj 604 26 t l l;
#X obj 445 -36 r song_done;
#X obj 610 215 list;
#X obj 604 143 list length;
#X obj 604 120 t l l;
#X obj 604 168 ==;
#X obj 610 192 sel 1;
#X obj 445 32 list;
#X obj 391 560 l2s;
#X msg 391 582 label \$1;
#X obj 445 124 list prepend;
#X obj 547 126 t l;
#X obj 514 100 r make_song;
#X obj 522 71 list length;
#X obj 445 54 t l l;
#X obj 451 243 list;
#X obj 445 171 list length;
#X obj 445 148 t l l;
#X obj 445 196 ==;
#X obj 451 220 sel 1;
#X obj 466 12 r verse;
#X obj -46 548 del 1;
#X obj 804 61 drip;
#X obj 159 -37 r key_mode;
#X obj 391 603 s verse1_canvas;
#X obj 501 560 l2s;
#X msg 501 582 label \$1;
#X obj 501 603 s verse2_canvas;
#X obj 730 560 l2s;
#X msg 730 581 label \$1;
#X obj 610 603 s chorus1_canvas;
#X obj 730 603 s chorus2_canvas;
#X obj 391 454 list prepend ||:;
#X obj 391 476 list append :||;
#X obj 501 454 list prepend ||;
#X obj 501 476 list append ||;
#X obj 610 475 list append ||;
#X obj 610 453 list prepend ||;
#X obj 730 351 list prepend ||:;
#X obj 811 494 l2s;
#X obj 811 472 prepend :||;
#X obj 730 536 list append ||;
#X obj 811 516 list append ||;
#X obj 161 523 list-math +;
#X obj 224 501 r key_root;
#X obj 188 451 list-math div 12;
#X obj 161 429 t l l;
#X obj 161 545 list-math mod 12;
#X obj 188 478 list-math * 12;
#X obj 161 566 list-add;
#X obj 31 523 list-math +;
#X obj 94 501 r key_root;
#X obj 58 451 list-math div 12;
#X obj 31 429 t l l;
#X obj 31 545 list-math mod 12;
#X obj 58 478 list-math * 12;
#X obj 31 566 list-add;
#X obj 31 588 s chorus;
#X obj 898 122 r verse;
#X obj 857 173 list split 1;
#X obj 857 152 list;
#X obj 857 197 t b f;
#X obj 832 383 r verse;
#X obj 811 426 list split 1;
#X obj 811 403 list;
#X obj 730 375 t l b;
#X obj 403 503 s verse1;
#X obj 513 503 s verse2;
#X obj 623 501 s chorus1;
#X obj 796 567 s chorus2;
#X obj 105 21 list prepend;
#N canvas 138 23 1280 717 chordname 0;
#X obj 71 -73 inlet;
#X obj 521 581 outlet;
#X obj 71 -19 sel 0 1 2 3 4 5 6 7 8 9 10 11 12 13 14 15 16 17 18 19
20 21 22 23 24 25 26 27 28 29 30 31 32 33 34 35 36 37 38 39 40 41 42
43 44 45 46 47 48 49 50 51 52 53 54 55 56 57 58 59 60 61 62 63 64 65
66 67 68 69 70 71;
#X obj 71 -47 drip;
#X msg 161 152 Db:min;
#X msg 71 92 C:maj;
#X msg 161 92 Db:maj;
#X msg 251 92 D:maj;
#X msg 341 92 Eb:maj;
#X msg 431 92 E:maj;
#X msg 521 92 F:maj;
#X msg 611 92 Gb:maj;
#X msg 701 92 G:maj;
#X msg 791 92 Ab:maj;
#X msg 881 92 A:maj;
#X msg 971 92 Bb:maj;
#X msg 1061 92 B:maj;
#X msg 1101 152 B:min;
#X msg 972 152 Bb:min;
#X msg 881 152 A:min;
#X msg 791 152 Ab:min;
#X msg 701 152 G:min;
#X msg 611 152 Gb:min;
#X msg 521 152 F:min;
#X msg 431 152 E:min;
#X msg 341 152 Eb:min;
#X msg 251 152 D:min;
#X msg 72 152 C:min;
#X msg 71 210 C:aug;
#X msg 71 272 C:dim;
#X msg 71 332 C:sus4;
#X msg 71 392 C:7;
#X msg 161 392 Db:7;
#X msg 251 392 D:7;
#X msg 341 392 Eb:7;
#X msg 431 392 E:7;
#X msg 521 392 F:7;
#X msg 611 392 Gb:7;
#X msg 701 392 G:7;
#X msg 791 392 Ab:7;
#X msg 881 392 A:7;
#X msg 971 392 Bb:7;
#X msg 1061 392 B:7;
#X msg 1061 332 B:sus4;
#X msg 971 332 Bb:sus4;
#X msg 881 332 A:sus4;
#X msg 791 332 Ab:sus4;
#X msg 701 332 G:sus4;
#X msg 611 331 Gb:sus4;
#X msg 521 332 F:sus4;
#X msg 431 332 E:sus4;
#X msg 341 332 Eb:sus4;
#X msg 251 332 D:sus4;
#X msg 161 332 Db:sus4;
#X msg 161 272 Db:dim;
#X msg 161 210 Db:aug;
#X msg 251 210 D:aug;
#X msg 341 210 Eb:aug;
#X msg 431 210 E:aug;
#X msg 521 210 F:aug;
#X msg 611 210 Gb:aug;
#X msg 701 210 G:aug;
#X msg 791 210 Ab:aug;
#X msg 881 210 A:aug;
#X msg 971 210 Bb:aug;
#X msg 1061 210 B:aug;
#X msg 1061 272 B:dim;
#X msg 971 272 Bb:dim;
#X msg 881 272 A:dim;
#X msg 791 271 Ab:dim;
#X msg 701 272 G:dim;
#X msg 611 272 Gb:dim;
#X msg 521 272 F:dim;
#X msg 431 272 E:dim;
#X msg 341 272 Eb:dim;
#X msg 251 272 D:dim;
#X connect 0 0 3 0;
#X connect 2 0 5 0;
#X connect 2 1 6 0;
#X connect 2 2 7 0;
#X connect 2 3 8 0;
#X connect 2 4 9 0;
#X connect 2 5 10 0;
#X connect 2 6 11 0;
#X connect 2 7 12 0;
#X connect 2 8 13 0;
#X connect 2 9 14 0;
#X connect 2 10 15 0;
#X connect 2 11 16 0;
#X connect 2 12 27 0;
#X connect 2 13 4 0;
#X connect 2 14 26 0;
#X connect 2 15 25 0;
#X connect 2 16 24 0;
#X connect 2 17 23 0;
#X connect 2 18 22 0;
#X connect 2 19 21 0;
#X connect 2 20 20 0;
#X connect 2 21 19 0;
#X connect 2 22 18 0;
#X connect 2 23 17 0;
#X connect 2 24 28 0;
#X connect 2 25 55 0;
#X connect 2 26 56 0;
#X connect 2 27 57 0;
#X connect 2 28 58 0;
#X connect 2 29 59 0;
#X connect 2 30 60 0;
#X connect 2 31 61 0;
#X connect 2 32 62 0;
#X connect 2 33 63 0;
#X connect 2 34 64 0;
#X connect 2 35 65 0;
#X connect 2 36 29 0;
#X connect 2 37 54 0;
#X connect 2 38 75 0;
#X connect 2 39 74 0;
#X connect 2 40 73 0;
#X connect 2 41 72 0;
#X connect 2 42 71 0;
#X connect 2 43 70 0;
#X connect 2 44 69 0;
#X connect 2 45 68 0;
#X connect 2 46 67 0;
#X connect 2 47 66 0;
#X connect 2 48 30 0;
#X connect 2 49 53 0;
#X connect 2 50 52 0;
#X connect 2 51 51 0;
#X connect 2 52 50 0;
#X connect 2 53 49 0;
#X connect 2 54 48 0;
#X connect 2 55 47 0;
#X connect 2 56 46 0;
#X connect 2 57 45 0;
#X connect 2 58 44 0;
#X connect 2 59 43 0;
#X connect 2 60 31 0;
#X connect 2 61 32 0;
#X connect 2 62 33 0;
#X connect 2 63 34 0;
#X connect 2 64 35 0;
#X connect 2 65 36 0;
#X connect 2 66 37 0;
#X connect 2 67 38 0;
#X connect 2 68 39 0;
#X connect 2 69 40 0;
#X connect 2 70 41 0;
#X connect 2 71 42 0;
#X connect 3 0 2 0;
#X connect 4 0 1 0;
#X connect 5 0 1 0;
#X connect 6 0 1 0;
#X connect 7 0 1 0;
#X connect 8 0 1 0;
#X connect 9 0 1 0;
#X connect 10 0 1 0;
#X connect 11 0 1 0;
#X connect 12 0 1 0;
#X connect 13 0 1 0;
#X connect 14 0 1 0;
#X connect 15 0 1 0;
#X connect 16 0 1 0;
#X connect 17 0 1 0;
#X connect 18 0 1 0;
#X connect 19 0 1 0;
#X connect 20 0 1 0;
#X connect 21 0 1 0;
#X connect 22 0 1 0;
#X connect 23 0 1 0;
#X connect 24 0 1 0;
#X connect 25 0 1 0;
#X connect 26 0 1 0;
#X connect 27 0 1 0;
#X connect 28 0 1 0;
#X connect 29 0 1 0;
#X connect 30 0 1 0;
#X connect 31 0 1 0;
#X connect 32 0 1 0;
#X connect 33 0 1 0;
#X connect 34 0 1 0;
#X connect 35 0 1 0;
#X connect 36 0 1 0;
#X connect 37 0 1 0;
#X connect 38 0 1 0;
#X connect 39 0 1 0;
#X connect 40 0 1 0;
#X connect 41 0 1 0;
#X connect 42 0 1 0;
#X connect 43 0 1 0;
#X connect 44 0 1 0;
#X connect 45 0 1 0;
#X connect 46 0 1 0;
#X connect 47 0 1 0;
#X connect 48 0 1 0;
#X connect 49 0 1 0;
#X connect 50 0 1 0;
#X connect 51 0 1 0;
#X connect 52 0 1 0;
#X connect 53 0 1 0;
#X connect 54 0 1 0;
#X connect 55 0 1 0;
#X connect 56 0 1 0;
#X connect 57 0 1 0;
#X connect 58 0 1 0;
#X connect 59 0 1 0;
#X connect 60 0 1 0;
#X connect 61 0 1 0;
#X connect 62 0 1 0;
#X connect 63 0 1 0;
#X connect 64 0 1 0;
#X connect 65 0 1 0;
#X connect 66 0 1 0;
#X connect 67 0 1 0;
#X connect 68 0 1 0;
#X connect 69 0 1 0;
#X connect 70 0 1 0;
#X connect 71 0 1 0;
#X connect 72 0 1 0;
#X connect 73 0 1 0;
#X connect 74 0 1 0;
#X connect 75 0 1 0;
#X restore 445 77 pd chordname;
#N canvas 138 23 1280 717 chordname 0;
#X obj 71 -73 inlet;
#X obj 521 581 outlet;
#X obj 71 -19 sel 0 1 2 3 4 5 6 7 8 9 10 11 12 13 14 15 16 17 18 19
20 21 22 23 24 25 26 27 28 29 30 31 32 33 34 35 36 37 38 39 40 41 42
43 44 45 46 47 48 49 50 51 52 53 54 55 56 57 58 59 60 61 62 63 64 65
66 67 68 69 70 71;
#X obj 71 -47 drip;
#X msg 161 152 Db:min;
#X msg 71 92 C:maj;
#X msg 161 92 Db:maj;
#X msg 251 92 D:maj;
#X msg 341 92 Eb:maj;
#X msg 431 92 E:maj;
#X msg 521 92 F:maj;
#X msg 611 92 Gb:maj;
#X msg 701 92 G:maj;
#X msg 791 92 Ab:maj;
#X msg 881 92 A:maj;
#X msg 971 92 Bb:maj;
#X msg 1061 92 B:maj;
#X msg 1101 152 B:min;
#X msg 972 152 Bb:min;
#X msg 881 152 A:min;
#X msg 791 152 Ab:min;
#X msg 701 152 G:min;
#X msg 611 152 Gb:min;
#X msg 521 152 F:min;
#X msg 431 152 E:min;
#X msg 341 152 Eb:min;
#X msg 251 152 D:min;
#X msg 72 152 C:min;
#X msg 71 210 C:aug;
#X msg 71 272 C:dim;
#X msg 71 332 C:sus4;
#X msg 71 392 C:7;
#X msg 161 392 Db:7;
#X msg 251 392 D:7;
#X msg 341 392 Eb:7;
#X msg 431 392 E:7;
#X msg 521 392 F:7;
#X msg 611 392 Gb:7;
#X msg 701 392 G:7;
#X msg 791 392 Ab:7;
#X msg 881 392 A:7;
#X msg 971 392 Bb:7;
#X msg 1061 392 B:7;
#X msg 1061 332 B:sus4;
#X msg 971 332 Bb:sus4;
#X msg 881 332 A:sus4;
#X msg 791 332 Ab:sus4;
#X msg 701 332 G:sus4;
#X msg 611 331 Gb:sus4;
#X msg 521 332 F:sus4;
#X msg 431 332 E:sus4;
#X msg 341 332 Eb:sus4;
#X msg 251 332 D:sus4;
#X msg 161 332 Db:sus4;
#X msg 161 272 Db:dim;
#X msg 161 210 Db:aug;
#X msg 251 210 D:aug;
#X msg 341 210 Eb:aug;
#X msg 431 210 E:aug;
#X msg 521 210 F:aug;
#X msg 611 210 Gb:aug;
#X msg 701 210 G:aug;
#X msg 791 210 Ab:aug;
#X msg 881 210 A:aug;
#X msg 971 210 Bb:aug;
#X msg 1061 210 B:aug;
#X msg 1061 272 B:dim;
#X msg 971 272 Bb:dim;
#X msg 881 272 A:dim;
#X msg 791 271 Ab:dim;
#X msg 701 272 G:dim;
#X msg 611 272 Gb:dim;
#X msg 521 272 F:dim;
#X msg 431 272 E:dim;
#X msg 341 272 Eb:dim;
#X msg 251 272 D:dim;
#X connect 0 0 3 0;
#X connect 2 0 5 0;
#X connect 2 1 6 0;
#X connect 2 2 7 0;
#X connect 2 3 8 0;
#X connect 2 4 9 0;
#X connect 2 5 10 0;
#X connect 2 6 11 0;
#X connect 2 7 12 0;
#X connect 2 8 13 0;
#X connect 2 9 14 0;
#X connect 2 10 15 0;
#X connect 2 11 16 0;
#X connect 2 12 27 0;
#X connect 2 13 4 0;
#X connect 2 14 26 0;
#X connect 2 15 25 0;
#X connect 2 16 24 0;
#X connect 2 17 23 0;
#X connect 2 18 22 0;
#X connect 2 19 21 0;
#X connect 2 20 20 0;
#X connect 2 21 19 0;
#X connect 2 22 18 0;
#X connect 2 23 17 0;
#X connect 2 24 28 0;
#X connect 2 25 55 0;
#X connect 2 26 56 0;
#X connect 2 27 57 0;
#X connect 2 28 58 0;
#X connect 2 29 59 0;
#X connect 2 30 60 0;
#X connect 2 31 61 0;
#X connect 2 32 62 0;
#X connect 2 33 63 0;
#X connect 2 34 64 0;
#X connect 2 35 65 0;
#X connect 2 36 29 0;
#X connect 2 37 54 0;
#X connect 2 38 75 0;
#X connect 2 39 74 0;
#X connect 2 40 73 0;
#X connect 2 41 72 0;
#X connect 2 42 71 0;
#X connect 2 43 70 0;
#X connect 2 44 69 0;
#X connect 2 45 68 0;
#X connect 2 46 67 0;
#X connect 2 47 66 0;
#X connect 2 48 30 0;
#X connect 2 49 53 0;
#X connect 2 50 52 0;
#X connect 2 51 51 0;
#X connect 2 52 50 0;
#X connect 2 53 49 0;
#X connect 2 54 48 0;
#X connect 2 55 47 0;
#X connect 2 56 46 0;
#X connect 2 57 45 0;
#X connect 2 58 44 0;
#X connect 2 59 43 0;
#X connect 2 60 31 0;
#X connect 2 61 32 0;
#X connect 2 62 33 0;
#X connect 2 63 34 0;
#X connect 2 64 35 0;
#X connect 2 65 36 0;
#X connect 2 66 37 0;
#X connect 2 67 38 0;
#X connect 2 68 39 0;
#X connect 2 69 40 0;
#X connect 2 70 41 0;
#X connect 2 71 42 0;
#X connect 3 0 2 0;
#X connect 4 0 1 0;
#X connect 5 0 1 0;
#X connect 6 0 1 0;
#X connect 7 0 1 0;
#X connect 8 0 1 0;
#X connect 9 0 1 0;
#X connect 10 0 1 0;
#X connect 11 0 1 0;
#X connect 12 0 1 0;
#X connect 13 0 1 0;
#X connect 14 0 1 0;
#X connect 15 0 1 0;
#X connect 16 0 1 0;
#X connect 17 0 1 0;
#X connect 18 0 1 0;
#X connect 19 0 1 0;
#X connect 20 0 1 0;
#X connect 21 0 1 0;
#X connect 22 0 1 0;
#X connect 23 0 1 0;
#X connect 24 0 1 0;
#X connect 25 0 1 0;
#X connect 26 0 1 0;
#X connect 27 0 1 0;
#X connect 28 0 1 0;
#X connect 29 0 1 0;
#X connect 30 0 1 0;
#X connect 31 0 1 0;
#X connect 32 0 1 0;
#X connect 33 0 1 0;
#X connect 34 0 1 0;
#X connect 35 0 1 0;
#X connect 36 0 1 0;
#X connect 37 0 1 0;
#X connect 38 0 1 0;
#X connect 39 0 1 0;
#X connect 40 0 1 0;
#X connect 41 0 1 0;
#X connect 42 0 1 0;
#X connect 43 0 1 0;
#X connect 44 0 1 0;
#X connect 45 0 1 0;
#X connect 46 0 1 0;
#X connect 47 0 1 0;
#X connect 48 0 1 0;
#X connect 49 0 1 0;
#X connect 50 0 1 0;
#X connect 51 0 1 0;
#X connect 52 0 1 0;
#X connect 53 0 1 0;
#X connect 54 0 1 0;
#X connect 55 0 1 0;
#X connect 56 0 1 0;
#X connect 57 0 1 0;
#X connect 58 0 1 0;
#X connect 59 0 1 0;
#X connect 60 0 1 0;
#X connect 61 0 1 0;
#X connect 62 0 1 0;
#X connect 63 0 1 0;
#X connect 64 0 1 0;
#X connect 65 0 1 0;
#X connect 66 0 1 0;
#X connect 67 0 1 0;
#X connect 68 0 1 0;
#X connect 69 0 1 0;
#X connect 70 0 1 0;
#X connect 71 0 1 0;
#X connect 72 0 1 0;
#X connect 73 0 1 0;
#X connect 74 0 1 0;
#X connect 75 0 1 0;
#X restore 604 49 pd chordname;
#N canvas 138 23 1280 717 chordname 0;
#X obj 71 -73 inlet;
#X obj 521 581 outlet;
#X obj 71 -19 sel 0 1 2 3 4 5 6 7 8 9 10 11 12 13 14 15 16 17 18 19
20 21 22 23 24 25 26 27 28 29 30 31 32 33 34 35 36 37 38 39 40 41 42
43 44 45 46 47 48 49 50 51 52 53 54 55 56 57 58 59 60 61 62 63 64 65
66 67 68 69 70 71;
#X obj 71 -47 drip;
#X msg 161 152 Db:min;
#X msg 71 92 C:maj;
#X msg 161 92 Db:maj;
#X msg 251 92 D:maj;
#X msg 341 92 Eb:maj;
#X msg 431 92 E:maj;
#X msg 521 92 F:maj;
#X msg 611 92 Gb:maj;
#X msg 701 92 G:maj;
#X msg 791 92 Ab:maj;
#X msg 881 92 A:maj;
#X msg 971 92 Bb:maj;
#X msg 1061 92 B:maj;
#X msg 1101 152 B:min;
#X msg 972 152 Bb:min;
#X msg 881 152 A:min;
#X msg 791 152 Ab:min;
#X msg 701 152 G:min;
#X msg 611 152 Gb:min;
#X msg 521 152 F:min;
#X msg 431 152 E:min;
#X msg 341 152 Eb:min;
#X msg 251 152 D:min;
#X msg 72 152 C:min;
#X msg 71 210 C:aug;
#X msg 71 272 C:dim;
#X msg 71 332 C:sus4;
#X msg 71 392 C:7;
#X msg 161 392 Db:7;
#X msg 251 392 D:7;
#X msg 341 392 Eb:7;
#X msg 431 392 E:7;
#X msg 521 392 F:7;
#X msg 611 392 Gb:7;
#X msg 701 392 G:7;
#X msg 791 392 Ab:7;
#X msg 881 392 A:7;
#X msg 971 392 Bb:7;
#X msg 1061 392 B:7;
#X msg 1061 332 B:sus4;
#X msg 971 332 Bb:sus4;
#X msg 881 332 A:sus4;
#X msg 791 332 Ab:sus4;
#X msg 701 332 G:sus4;
#X msg 611 331 Gb:sus4;
#X msg 521 332 F:sus4;
#X msg 431 332 E:sus4;
#X msg 341 332 Eb:sus4;
#X msg 251 332 D:sus4;
#X msg 161 332 Db:sus4;
#X msg 161 272 Db:dim;
#X msg 161 210 Db:aug;
#X msg 251 210 D:aug;
#X msg 341 210 Eb:aug;
#X msg 431 210 E:aug;
#X msg 521 210 F:aug;
#X msg 611 210 Gb:aug;
#X msg 701 210 G:aug;
#X msg 791 210 Ab:aug;
#X msg 881 210 A:aug;
#X msg 971 210 Bb:aug;
#X msg 1061 210 B:aug;
#X msg 1061 272 B:dim;
#X msg 971 272 Bb:dim;
#X msg 881 272 A:dim;
#X msg 791 271 Ab:dim;
#X msg 701 272 G:dim;
#X msg 611 272 Gb:dim;
#X msg 521 272 F:dim;
#X msg 431 272 E:dim;
#X msg 341 272 Eb:dim;
#X msg 251 272 D:dim;
#X connect 0 0 3 0;
#X connect 2 0 5 0;
#X connect 2 1 6 0;
#X connect 2 2 7 0;
#X connect 2 3 8 0;
#X connect 2 4 9 0;
#X connect 2 5 10 0;
#X connect 2 6 11 0;
#X connect 2 7 12 0;
#X connect 2 8 13 0;
#X connect 2 9 14 0;
#X connect 2 10 15 0;
#X connect 2 11 16 0;
#X connect 2 12 27 0;
#X connect 2 13 4 0;
#X connect 2 14 26 0;
#X connect 2 15 25 0;
#X connect 2 16 24 0;
#X connect 2 17 23 0;
#X connect 2 18 22 0;
#X connect 2 19 21 0;
#X connect 2 20 20 0;
#X connect 2 21 19 0;
#X connect 2 22 18 0;
#X connect 2 23 17 0;
#X connect 2 24 28 0;
#X connect 2 25 55 0;
#X connect 2 26 56 0;
#X connect 2 27 57 0;
#X connect 2 28 58 0;
#X connect 2 29 59 0;
#X connect 2 30 60 0;
#X connect 2 31 61 0;
#X connect 2 32 62 0;
#X connect 2 33 63 0;
#X connect 2 34 64 0;
#X connect 2 35 65 0;
#X connect 2 36 29 0;
#X connect 2 37 54 0;
#X connect 2 38 75 0;
#X connect 2 39 74 0;
#X connect 2 40 73 0;
#X connect 2 41 72 0;
#X connect 2 42 71 0;
#X connect 2 43 70 0;
#X connect 2 44 69 0;
#X connect 2 45 68 0;
#X connect 2 46 67 0;
#X connect 2 47 66 0;
#X connect 2 48 30 0;
#X connect 2 49 53 0;
#X connect 2 50 52 0;
#X connect 2 51 51 0;
#X connect 2 52 50 0;
#X connect 2 53 49 0;
#X connect 2 54 48 0;
#X connect 2 55 47 0;
#X connect 2 56 46 0;
#X connect 2 57 45 0;
#X connect 2 58 44 0;
#X connect 2 59 43 0;
#X connect 2 60 31 0;
#X connect 2 61 32 0;
#X connect 2 62 33 0;
#X connect 2 63 34 0;
#X connect 2 64 35 0;
#X connect 2 65 36 0;
#X connect 2 66 37 0;
#X connect 2 67 38 0;
#X connect 2 68 39 0;
#X connect 2 69 40 0;
#X connect 2 70 41 0;
#X connect 2 71 42 0;
#X connect 3 0 2 0;
#X connect 4 0 1 0;
#X connect 5 0 1 0;
#X connect 6 0 1 0;
#X connect 7 0 1 0;
#X connect 8 0 1 0;
#X connect 9 0 1 0;
#X connect 10 0 1 0;
#X connect 11 0 1 0;
#X connect 12 0 1 0;
#X connect 13 0 1 0;
#X connect 14 0 1 0;
#X connect 15 0 1 0;
#X connect 16 0 1 0;
#X connect 17 0 1 0;
#X connect 18 0 1 0;
#X connect 19 0 1 0;
#X connect 20 0 1 0;
#X connect 21 0 1 0;
#X connect 22 0 1 0;
#X connect 23 0 1 0;
#X connect 24 0 1 0;
#X connect 25 0 1 0;
#X connect 26 0 1 0;
#X connect 27 0 1 0;
#X connect 28 0 1 0;
#X connect 29 0 1 0;
#X connect 30 0 1 0;
#X connect 31 0 1 0;
#X connect 32 0 1 0;
#X connect 33 0 1 0;
#X connect 34 0 1 0;
#X connect 35 0 1 0;
#X connect 36 0 1 0;
#X connect 37 0 1 0;
#X connect 38 0 1 0;
#X connect 39 0 1 0;
#X connect 40 0 1 0;
#X connect 41 0 1 0;
#X connect 42 0 1 0;
#X connect 43 0 1 0;
#X connect 44 0 1 0;
#X connect 45 0 1 0;
#X connect 46 0 1 0;
#X connect 47 0 1 0;
#X connect 48 0 1 0;
#X connect 49 0 1 0;
#X connect 50 0 1 0;
#X connect 51 0 1 0;
#X connect 52 0 1 0;
#X connect 53 0 1 0;
#X connect 54 0 1 0;
#X connect 55 0 1 0;
#X connect 56 0 1 0;
#X connect 57 0 1 0;
#X connect 58 0 1 0;
#X connect 59 0 1 0;
#X connect 60 0 1 0;
#X connect 61 0 1 0;
#X connect 62 0 1 0;
#X connect 63 0 1 0;
#X connect 64 0 1 0;
#X connect 65 0 1 0;
#X connect 66 0 1 0;
#X connect 67 0 1 0;
#X connect 68 0 1 0;
#X connect 69 0 1 0;
#X connect 70 0 1 0;
#X connect 71 0 1 0;
#X connect 72 0 1 0;
#X connect 73 0 1 0;
#X connect 74 0 1 0;
#X connect 75 0 1 0;
#X restore 811 448 pd chordname;
#X connect 0 0 11 0;
#X connect 1 0 40 0;
#X connect 1 1 41 0;
#X connect 2 0 3 0;
#X connect 2 1 136 1;
#X connect 3 0 4 0;
#X connect 3 1 5 0;
#X connect 4 0 9 1;
#X connect 5 0 9 1;
#X connect 6 0 44 0;
#X connect 8 0 10 0;
#X connect 9 0 11 0;
#X connect 10 0 44 0;
#X connect 10 1 136 0;
#X connect 11 0 7 0;
#X connect 11 1 31 0;
#X connect 12 0 13 0;
#X connect 12 1 15 1;
#X connect 12 1 16 1;
#X connect 13 0 14 0;
#X connect 14 0 16 1;
#X connect 14 0 15 0;
#X connect 15 0 22 0;
#X connect 16 0 12 0;
#X connect 17 1 16 0;
#X connect 18 0 19 0;
#X connect 19 0 23 0;
#X connect 19 1 20 0;
#X connect 19 1 18 1;
#X connect 20 0 26 0;
#X connect 21 0 43 0;
#X connect 22 0 87 0;
#X connect 22 1 119 0;
#X connect 23 0 25 0;
#X connect 24 0 23 1;
#X connect 25 0 112 0;
#X connect 25 1 28 0;
#X connect 26 0 24 0;
#X connect 26 1 27 0;
#X connect 27 0 25 1;
#X connect 28 0 34 0;
#X connect 29 0 66 0;
#X connect 30 0 17 0;
#X connect 30 1 18 0;
#X connect 31 0 30 0;
#X connect 32 0 31 1;
#X connect 33 0 31 1;
#X connect 34 0 35 0;
#X connect 36 0 88 0;
#X connect 37 0 54 0;
#X connect 37 1 53 0;
#X connect 37 2 126 0;
#X connect 38 0 29 1;
#X connect 40 0 42 0;
#X connect 41 0 42 0;
#X connect 42 0 0 1;
#X connect 44 0 0 0;
#X connect 45 0 6 0;
#X connect 46 0 9 0;
#X connect 47 0 18 1;
#X connect 48 0 33 0;
#X connect 49 0 58 0;
#X connect 50 0 52 0;
#X connect 51 0 73 0;
#X connect 51 1 29 0;
#X connect 52 0 96 0;
#X connect 53 0 60 0;
#X connect 54 0 60 0;
#X connect 55 0 53 1;
#X connect 56 0 54 1;
#X connect 57 0 60 1;
#X connect 58 0 36 0;
#X connect 58 1 60 1;
#X connect 59 0 61 0;
#X connect 60 0 57 0;
#X connect 60 0 59 1;
#X connect 62 0 63 0;
#X connect 62 0 70 0;
#X connect 63 0 62 1;
#X connect 64 0 62 1;
#X connect 65 0 71 1;
#X connect 66 0 138 0;
#X connect 66 1 65 0;
#X connect 67 0 51 0;
#X connect 68 0 103 0;
#X connect 68 0 104 0;
#X connect 69 0 71 0;
#X connect 70 0 69 0;
#X connect 70 1 68 1;
#X connect 71 0 72 0;
#X connect 72 0 68 0;
#X connect 73 0 80 0;
#X connect 74 0 75 0;
#X connect 75 0 90 0;
#X connect 76 0 77 0;
#X connect 76 0 83 0;
#X connect 77 0 76 1;
#X connect 78 0 76 1;
#X connect 79 0 84 1;
#X connect 80 0 137 0;
#X connect 80 1 79 0;
#X connect 81 0 98 0;
#X connect 81 0 100 0;
#X connect 82 0 84 0;
#X connect 83 0 82 0;
#X connect 83 1 81 1;
#X connect 84 0 85 0;
#X connect 85 0 81 0;
#X connect 86 0 73 1;
#X connect 87 0 21 0;
#X connect 88 0 37 0;
#X connect 89 0 2 0;
#X connect 91 0 92 0;
#X connect 92 0 93 0;
#X connect 94 0 95 0;
#X connect 95 0 97 0;
#X connect 98 0 99 0;
#X connect 99 0 74 0;
#X connect 99 0 132 0;
#X connect 100 0 101 0;
#X connect 101 0 91 0;
#X connect 101 0 133 0;
#X connect 102 0 50 0;
#X connect 102 0 134 0;
#X connect 103 0 102 0;
#X connect 104 0 131 0;
#X connect 105 0 108 0;
#X connect 106 0 105 0;
#X connect 107 0 94 0;
#X connect 107 0 135 0;
#X connect 108 0 107 1;
#X connect 109 0 113 0;
#X connect 110 0 109 1;
#X connect 111 0 114 0;
#X connect 112 0 109 0;
#X connect 112 1 111 0;
#X connect 113 0 115 0;
#X connect 114 0 115 1;
#X connect 115 0 39 0;
#X connect 116 0 120 0;
#X connect 117 0 116 1;
#X connect 118 0 121 0;
#X connect 119 0 116 0;
#X connect 119 1 118 0;
#X connect 120 0 122 0;
#X connect 121 0 122 1;
#X connect 122 0 123 0;
#X connect 124 0 126 1;
#X connect 125 0 127 0;
#X connect 126 0 125 0;
#X connect 127 0 59 0;
#X connect 127 1 60 0;
#X connect 128 0 130 1;
#X connect 129 0 139 0;
#X connect 130 0 129 0;
#X connect 131 0 107 0;
#X connect 131 1 130 0;
#X connect 136 0 1 0;
#X connect 137 0 76 0;
#X connect 138 0 62 0;
#X connect 139 0 106 0;
#X restore -243 -368 pd generate_song;
#N canvas 252 88 483 897 midi-fake-guitar 0;
#X obj 25 519 t l b;
#X obj 99 587 f 6;
#X obj 131 587 - 1;
#X obj 54 629 pack f f;
#X msg 54 783 \$2 \$1;
#X obj 114 566 f;
#X obj 99 607 abs;
#X obj 25 163 f 0;
#X obj 56 163 + 1;
#X obj 25 184 mod 8;
#X obj 25 207 t f f;
#X obj 25 343 + 1;
#X obj 25 401 list 0 48 52 55 60 64;
#X obj 207 411 l2s;
#X symbolatom 207 435 20 0 0 0 - - -;
#X obj 50 492 list-rev;
#X obj 25 447 list prepend;
#X obj 94 426 == 6;
#X obj 25 469 route 1 0;
#X obj 54 654 relay 0;
#X obj 25 570 t f b;
#X msg 52 139 0;
#X obj 25 546 drip 0;
#X obj 120 733 fifop;
#X obj 93 703 once;
#X obj 93 677 t b a;
#X obj 120 755 t a b;
#X obj 52 119 sel 0;
#X obj 76 51 /;
#X msg 76 28 60000 \$1;
#X obj 76 74 * 0.5;
#X obj 25 96 metro 240;
#X obj 92 97 s quaver;
#X obj 211 681 / 6;
#X obj 211 656 r quaver;
#X obj 180 754 clip 0 40;
#X obj 204 702 t b f;
#X obj 180 732 f;
#X obj 147 777 del 15;
#N canvas 245 136 609 442 strings_out 0;
#X msg 65 335 \$1 0;
#X obj 26 39 inlet;
#X obj 26 61 route 6 5 4 3 2 1;
#X obj 26 253 t f l b;
#X obj 65 312 f 0;
#X msg 145 335 \$1 0;
#X obj 106 253 t f l b;
#X obj 145 312 f 0;
#X obj 45 361 noteout 6;
#X msg 225 335 \$1 0;
#X obj 186 253 t f l b;
#X obj 225 312 f 0;
#X msg 305 335 \$1 0;
#X obj 266 253 t f l b;
#X obj 305 312 f 0;
#X msg 385 335 \$1 0;
#X obj 346 253 t f l b;
#X obj 385 312 f 0;
#X msg 465 335 \$1 0;
#X obj 426 253 t f l b;
#X obj 465 312 f 0;
#X obj 125 361 noteout 5;
#X obj 205 361 noteout 4;
#X obj 285 361 noteout 3;
#X obj 365 361 noteout 2;
#X obj 445 361 noteout 1;
#X obj 483 34 inlet;
#X obj 26 197 pack 0 80;
#X obj 106 197 pack 0 80;
#X obj 186 197 pack 0 80;
#X obj 266 197 pack 0 80;
#X obj 346 196 pack 0 80;
#X obj 426 198 pack 0 80;
#X connect 0 0 8 0;
#X connect 1 0 2 0;
#X connect 2 0 27 0;
#X connect 2 1 28 0;
#X connect 2 2 29 0;
#X connect 2 3 30 0;
#X connect 2 4 31 0;
#X connect 2 5 32 0;
#X connect 3 0 4 1;
#X connect 3 1 8 0;
#X connect 3 2 4 0;
#X connect 4 0 0 0;
#X connect 5 0 21 0;
#X connect 6 0 7 1;
#X connect 6 1 21 0;
#X connect 6 2 7 0;
#X connect 7 0 5 0;
#X connect 9 0 22 0;
#X connect 10 0 11 1;
#X connect 10 1 22 0;
#X connect 10 2 11 0;
#X connect 11 0 9 0;
#X connect 12 0 23 0;
#X connect 13 0 14 1;
#X connect 13 1 23 0;
#X connect 13 2 14 0;
#X connect 14 0 12 0;
#X connect 15 0 24 0;
#X connect 16 0 17 1;
#X connect 16 1 24 0;
#X connect 16 2 17 0;
#X connect 17 0 15 0;
#X connect 18 0 25 0;
#X connect 19 0 20 1;
#X connect 19 1 25 0;
#X connect 19 2 20 0;
#X connect 20 0 18 0;
#X connect 26 0 27 1;
#X connect 26 0 28 1;
#X connect 26 0 29 1;
#X connect 26 0 30 1;
#X connect 26 0 31 1;
#X connect 26 0 32 1;
#X connect 27 0 3 0;
#X connect 28 0 6 0;
#X connect 29 0 10 0;
#X connect 30 0 13 0;
#X connect 31 0 16 0;
#X connect 32 0 19 0;
#X restore 91 812 pd strings_out;
#N canvas 82 122 1835 785 guitar_chords 0;
#X obj 17 74 div 12;
#X obj 69 74 mod 12;
#X obj 17 47 t f f;
#X obj 48 101 pack;
#X obj 48 124 route 0 1 2 3 4 5;
#X obj 81 210 s aug;
#X obj 48 250 s maj;
#X obj 64 230 s min;
#X obj 97 190 s dim;
#X obj 114 170 s sus4;
#X obj 130 148 s 7th;
#X obj 191 17 r maj;
#X obj 191 40 select 0 1 2 3 4 5 6 7 8 9 10 11;
#X obj 69 316 outlet;
#X obj 66 294 r chord;
#X obj 16 22 inlet;
#X msg 364 65 \; chord 0 47 54 59 63 66;
#X msg 191 432 \; chord 0 48 52 55 60 64;
#X msg 206 399 \; chord 0 49 53 56 61 65;
#X msg 222 366 \; chord 0 0 50 57 62 66;
#X msg 238 332 \; chord 0 0 51 58 63 67;
#X msg 254 299 \; chord 40 47 52 56 59 64;
#X msg 269 265 \; chord 41 48 53 57 60 65;
#X msg 285 232 \; chord 42 49 54 58 61 66;
#X msg 301 199 \; chord 43 47 50 55 59 67;
#X msg 332 132 \; chord 0 45 52 57 61 64;
#X msg 348 98 \; chord 0 46 53 58 62 65;
#X obj 541 40 select 0 1 2 3 4 5 6 7 8 9 10 11;
#X obj 541 17 r min;
#X msg 714 65 \; chord 0 47 54 59 62 66;
#X msg 698 98 \; chord 0 46 53 58 61 65;
#X msg 682 132 \; chord 0 45 52 57 60 64;
#X msg 541 432 \; chord 0 48 55 60 63 67;
#X msg 572 366 \; chord 0 0 50 57 62 65;
#X msg 588 332 \; chord 0 0 51 58 63 66;
#X msg 556 399 \; chord 0 49 56 61 64 68;
#X msg 604 299 \; chord 40 47 52 55 59 64;
#X msg 619 265 \; chord 41 48 53 56 60 65;
#X msg 635 232 \; chord 42 49 54 57 61 66;
#X msg 651 198 \; chord 43 50 55 58 62 67;
#X msg 667 166 \; chord 44 51 56 59 63 68;
#X obj 902 37 select 0 1 2 3 4 5 6 7 8 9 10 11;
#X obj 902 14 r 7th;
#X msg 902 429 \; chord 0 48 52 58 60 64;
#X msg 917 396 \; chord 0 49 56 59 65 68;
#X msg 933 363 \; chord 0 0 50 57 60 66;
#X msg 949 329 \; chord 0 0 51 58 61 67;
#X msg 965 296 \; chord 40 47 50 56 59 64;
#X msg 980 262 \; chord 41 48 51 57 60 65;
#X msg 996 229 \; chord 42 49 52 58 61 66;
#X msg 1012 196 \; chord 43 47 50 55 59 65;
#X msg 317 164 \; chord 44 51 56 60 63 68;
#X msg 1028 163 \; chord 44 51 54 60 63 68;
#X msg 1043 129 \; chord 0 45 52 55 61 64;
#X msg 1059 95 \; chord 0 46 53 56 62 65;
#X msg 1075 62 \; chord 0 47 54 57 63 66;
#X obj 1241 38 select 0 1 2 3 4 5 6 7 8 9 10 11;
#X msg 1414 63 \; chord 0 47 54 59 63 66;
#X msg 1241 430 \; chord 0 48 52 55 60 64;
#X msg 1256 397 \; chord 0 49 53 56 61 65;
#X msg 1272 364 \; chord 0 0 50 57 62 66;
#X msg 1288 330 \; chord 0 0 51 58 63 67;
#X msg 1304 297 \; chord 40 47 52 56 59 64;
#X msg 1319 263 \; chord 41 48 53 57 60 65;
#X msg 1335 230 \; chord 42 49 54 58 61 66;
#X msg 1351 197 \; chord 43 47 50 55 59 67;
#X msg 1382 130 \; chord 0 45 52 57 61 64;
#X msg 1398 96 \; chord 0 46 53 58 62 65;
#X obj 1591 38 select 0 1 2 3 4 5 6 7 8 9 10 11;
#X msg 1764 63 \; chord 0 47 54 59 62 66;
#X msg 1748 96 \; chord 0 46 53 58 61 65;
#X msg 1732 130 \; chord 0 45 52 57 60 64;
#X msg 1591 430 \; chord 0 48 55 60 63 67;
#X msg 1622 364 \; chord 0 0 50 57 62 65;
#X msg 1638 330 \; chord 0 0 51 58 63 66;
#X msg 1606 397 \; chord 0 49 56 61 64 68;
#X msg 1654 297 \; chord 40 47 52 55 59 64;
#X msg 1669 263 \; chord 41 48 53 56 60 65;
#X msg 1685 230 \; chord 42 49 54 57 61 66;
#X msg 1701 196 \; chord 43 50 55 58 62 67;
#X msg 1717 164 \; chord 44 51 56 59 63 68;
#X msg 1367 162 \; chord 44 51 56 60 63 68;
#X obj 1241 15 r aug;
#X obj 1591 15 r dim;
#X connect 0 0 3 0;
#X connect 1 0 3 1;
#X connect 2 0 0 0;
#X connect 2 1 1 0;
#X connect 3 0 4 0;
#X connect 4 0 6 0;
#X connect 4 1 7 0;
#X connect 4 2 5 0;
#X connect 4 3 8 0;
#X connect 4 4 9 0;
#X connect 4 5 10 0;
#X connect 11 0 12 0;
#X connect 12 0 17 0;
#X connect 12 1 18 0;
#X connect 12 2 19 0;
#X connect 12 3 20 0;
#X connect 12 4 21 0;
#X connect 12 5 22 0;
#X connect 12 6 23 0;
#X connect 12 7 24 0;
#X connect 12 8 51 0;
#X connect 12 9 25 0;
#X connect 12 10 26 0;
#X connect 12 11 16 0;
#X connect 14 0 13 0;
#X connect 15 0 2 0;
#X connect 27 0 32 0;
#X connect 27 1 35 0;
#X connect 27 2 33 0;
#X connect 27 3 34 0;
#X connect 27 4 36 0;
#X connect 27 5 37 0;
#X connect 27 6 38 0;
#X connect 27 7 39 0;
#X connect 27 8 40 0;
#X connect 27 9 31 0;
#X connect 27 10 30 0;
#X connect 27 11 29 0;
#X connect 28 0 27 0;
#X connect 41 0 43 0;
#X connect 41 1 44 0;
#X connect 41 2 45 0;
#X connect 41 3 46 0;
#X connect 41 4 47 0;
#X connect 41 5 48 0;
#X connect 41 6 49 0;
#X connect 41 7 50 0;
#X connect 41 8 52 0;
#X connect 41 9 53 0;
#X connect 41 10 54 0;
#X connect 41 11 55 0;
#X connect 42 0 41 0;
#X connect 56 0 58 0;
#X connect 56 1 59 0;
#X connect 56 2 60 0;
#X connect 56 3 61 0;
#X connect 56 4 62 0;
#X connect 56 5 63 0;
#X connect 56 6 64 0;
#X connect 56 7 65 0;
#X connect 56 8 81 0;
#X connect 56 9 66 0;
#X connect 56 10 67 0;
#X connect 56 11 57 0;
#X connect 68 0 72 0;
#X connect 68 1 75 0;
#X connect 68 2 73 0;
#X connect 68 3 74 0;
#X connect 68 4 76 0;
#X connect 68 5 77 0;
#X connect 68 6 78 0;
#X connect 68 7 79 0;
#X connect 68 8 80 0;
#X connect 68 9 71 0;
#X connect 68 10 70 0;
#X connect 68 11 69 0;
#X connect 82 0 56 0;
#X connect 83 0 68 0;
#X restore 207 384 pd guitar_chords;
#X obj 180 631 r strumming_speed;
#X obj 25 47 r play;
#X obj 76 7 r tempo;
#X obj -48 163 ctlout 123;
#X msg -48 139 123;
#X obj -48 116 sel 0;
#X obj 228 225 r complete_song;
#X obj 207 296 list split 1;
#X obj 207 274 list;
#X obj 241 319 route bang;
#X obj 241 362 s set-play;
#X msg 241 340 0;
#X obj 52 228 sel 0;
#X obj 228 250 list;
#X obj 25 71 t f f;
#N canvas 262 102 812 566 strumming 0;
#X obj 14 63 sel 1 2 3 4 5 6 7 8;
#X obj 14 40 inlet;
#X text 617 121 d - down;
#X text 617 161 r - let ring;
#X text 617 141 u - up;
#X text 617 181 dx - down mute;
#X text 617 201 ux - up mute;
#X text 118 269 with "r" we do nothing and let it ring...;
#X obj 14 270 sel d u dx ux r;
#X msg 214 426 6;
#X msg 250 426 -1;
#X obj 394 423 f 120;
#X obj 394 45 inlet;
#X msg 457 425 0;
#X obj 14 326 t b b b;
#X obj 64 326 t b b b;
#X obj 114 326 t b b b;
#X obj 164 326 t b b b;
#X obj 14 458 outlet;
#X obj 214 458 outlet;
#X text 60 457 bang to get chord;
#X text 261 456 up or down;
#X obj 394 458 outlet;
#X text 441 456 velocity;
#X obj 537 144 r str8;
#X obj 47 145 r str1;
#X obj 117 145 r str2;
#X obj 187 145 r str3;
#X obj 467 145 r str7;
#X obj 397 145 r str6;
#X obj 328 145 r str5;
#X obj 255 145 r str4;
#X obj 14 178 symbol;
#X obj 84 178 symbol;
#X obj 154 178 symbol;
#X obj 222 178 symbol;
#X obj 295 178 symbol;
#X obj 364 178 symbol;
#X obj 434 178 symbol;
#X obj 504 178 symbol;
#X connect 0 0 32 0;
#X connect 0 1 33 0;
#X connect 0 2 34 0;
#X connect 0 3 35 0;
#X connect 0 4 36 0;
#X connect 0 5 37 0;
#X connect 0 6 38 0;
#X connect 0 7 39 0;
#X connect 1 0 0 0;
#X connect 8 0 14 0;
#X connect 8 1 15 0;
#X connect 8 2 16 0;
#X connect 8 3 17 0;
#X connect 9 0 19 0;
#X connect 10 0 19 0;
#X connect 11 0 22 0;
#X connect 12 0 11 0;
#X connect 13 0 22 0;
#X connect 14 0 18 0;
#X connect 14 1 9 0;
#X connect 14 2 11 0;
#X connect 15 0 18 0;
#X connect 15 1 10 0;
#X connect 15 2 11 0;
#X connect 16 0 18 0;
#X connect 16 1 9 0;
#X connect 16 2 13 0;
#X connect 17 0 18 0;
#X connect 17 1 10 0;
#X connect 17 2 13 0;
#X connect 24 0 39 1;
#X connect 25 0 32 1;
#X connect 26 0 33 1;
#X connect 27 0 34 1;
#X connect 28 0 38 1;
#X connect 29 0 37 1;
#X connect 30 0 36 1;
#X connect 31 0 35 1;
#X connect 32 0 8 0;
#X connect 33 0 8 0;
#X connect 34 0 8 0;
#X connect 35 0 8 0;
#X connect 36 0 8 0;
#X connect 37 0 8 0;
#X connect 38 0 8 0;
#X connect 39 0 8 0;
#X restore 25 374 pd strumming pattern ----;
#X connect 0 0 22 0;
#X connect 0 1 5 0;
#X connect 1 0 2 0;
#X connect 1 0 6 0;
#X connect 2 0 1 1;
#X connect 3 0 19 0;
#X connect 4 0 39 0;
#X connect 5 0 1 1;
#X connect 6 0 3 1;
#X connect 7 0 8 0;
#X connect 7 0 9 0;
#X connect 8 0 7 1;
#X connect 9 0 10 0;
#X connect 10 0 11 0;
#X connect 10 1 53 0;
#X connect 11 0 56 0;
#X connect 12 0 16 0;
#X connect 13 0 14 0;
#X connect 15 0 0 0;
#X connect 16 0 18 0;
#X connect 17 0 16 1;
#X connect 18 0 0 0;
#X connect 18 1 15 0;
#X connect 19 0 4 0;
#X connect 19 1 25 0;
#X connect 20 0 3 0;
#X connect 20 1 1 0;
#X connect 21 0 7 1;
#X connect 22 0 20 0;
#X connect 23 0 26 0;
#X connect 23 1 24 1;
#X connect 24 0 23 0;
#X connect 25 0 24 0;
#X connect 25 1 23 0;
#X connect 26 0 4 0;
#X connect 26 1 38 0;
#X connect 27 0 21 0;
#X connect 28 0 30 0;
#X connect 29 0 28 0;
#X connect 30 0 31 1;
#X connect 30 0 32 0;
#X connect 31 0 7 0;
#X connect 33 0 36 0;
#X connect 34 0 33 0;
#X connect 35 0 38 1;
#X connect 36 0 37 0;
#X connect 36 1 35 2;
#X connect 37 0 35 0;
#X connect 38 0 23 0;
#X connect 40 0 13 0;
#X connect 40 0 12 1;
#X connect 41 0 37 0;
#X connect 42 0 46 0;
#X connect 42 0 55 0;
#X connect 43 0 29 0;
#X connect 45 0 44 0;
#X connect 46 0 45 0;
#X connect 47 0 54 0;
#X connect 48 0 40 0;
#X connect 48 1 49 1;
#X connect 48 1 50 0;
#X connect 49 0 48 0;
#X connect 50 0 52 0;
#X connect 52 0 51 0;
#X connect 53 0 49 0;
#X connect 54 0 49 1;
#X connect 55 0 31 0;
#X connect 55 1 27 0;
#X connect 56 0 12 0;
#X connect 56 1 17 0;
#X connect 56 1 5 1;
#X connect 56 2 39 1;
#X restore -140 -368 pd midi-fake-guitar;
#N canvas 710 133 489 503 loadbangs 0;
#X obj -20 -126 loadbang;
#X obj -20 183 delay 500;
#X obj -20 205 s load-tables;
#X obj -12 136 delay 600;
#X obj -12 158 s set-make_song;
#X msg -20 -103 bang \; verse1_canvas color 2 \, label_pos 5 15 \,
vis_size 770 30 \; chorus1_canvas color 2 \, label_pos 5 15 \, vis_size
770 30 \; verse2_canvas color 2 \, label_pos 5 15 \, vis_size 770 30
\; chorus2_canvas color 2 \, label_pos 5 15 \, vis_size 770 30 \; set-key_root
0 \; set-key_mode 0 \; set-str1 symbol d \; set-str2 symbol r \; set-str3
symbol d \; set-str4 symbol u \; set-str5 symbol r \; set-str6 symbol
u \; set-str7 symbol d \; set-str8 symbol u \; set-strumming_speed
6 \; set-tempo 160;
#X connect 0 0 5 0;
#X connect 1 0 2 0;
#X connect 3 0 4 0;
#X connect 5 0 1 0;
#X connect 5 0 3 0;
#X restore -242 -448 pd loadbangs;
#N canvas 650 252 401 388 write_textfile 0;
#X obj 55 320 textfile;
#X msg 230 155 clear;
#X obj 55 115 list;
#X obj 70 145 list;
#X obj 86 175 list;
#X obj 102 205 list;
#X obj 55 289 prepend add;
#X obj 55 62 t b b b b b;
#X msg -46 103 write \$1 cr;
#X obj -46 45 t s b;
#X obj 76 93 r chorus2;
#X obj 91 123 r verse2;
#X obj 107 153 r chorus1;
#X obj 123 183 r verse1;
#X obj -46 24 savepanel ./;
#X obj -46 0 r write_song;
#X connect 1 0 0 0;
#X connect 2 0 6 0;
#X connect 3 0 6 0;
#X connect 4 0 6 0;
#X connect 5 0 6 0;
#X connect 6 0 0 0;
#X connect 7 0 2 0;
#X connect 7 1 3 0;
#X connect 7 2 4 0;
#X connect 7 3 5 0;
#X connect 7 4 1 0;
#X connect 8 0 0 0;
#X connect 9 0 8 0;
#X connect 9 1 7 0;
#X connect 10 0 2 1;
#X connect 11 0 3 1;
#X connect 12 0 4 1;
#X connect 13 0 5 1;
#X connect 14 0 9 0;
#X connect 15 0 14 0;
#X restore -243 -348 pd write_textfile;
#X obj -243 -468 declare -path ../abs;
#X restore 20 -439 pd guts;
#X text -121 -486 export song to textfile;
#X text -441 -445 save analysis (to avoid analysing next time);
#X text 149 -460 string i.o.t;
