#N canvas 1454 355 787 295 10;
#X declare -lib zexy;
#X declare -lib cyclone;
#X obj 724 19 bng 50 250 50 0 make_song set-make_song empty 17 7 0
10 -262144 -261234 -1;
#X obj 4 79 cnv 15 770 30 empty verse1_canvas ||: E:maj A:maj E:maj A:maj :||
5 15 0 14 -166441 -66577 0;
#X obj 4 110 cnv 15 770 30 empty chorus1_canvas || A:maj Db:min A:maj Ab:maj ||
5 15 0 14 -166441 -66577 0;
#X obj 4 19 hradio 50 1 0 12 key_root set-key_root empty 0 -8 0 10
-262144 -261234 -1 0;
#X text 26 36 C;
#X text 74 36 Db;
#X text 126 36 D;
#X text 172 36 Eb;
#X text 322 36 Gb;
#X text 372 36 G;
#X text 422 36 Ab;
#X text 475 36 A;
#X text 226 36 E;
#X text 525 36 Bb;
#X text 575 36 B;
#X text 276 36 F;
#X obj 614 19 hradio 50 1 0 2 key_mode set-key_mode empty 0 -8 0 10
-262144 -261234 -1 0;
#X text 679 35 min;
#X text 629 35 maj;
#X obj 3 209 cnv 15 320 70 empty empty empty 20 12 0 14 -261234 -66577
0;
#X obj 17 254 bng 15 250 50 0 save-tables empty empty 17 7 0 10 -262144
-1 -1;
#X obj 17 214 bng 15 250 50 0 clear-tables empty empty 17 7 0 10 -262144
-1 -1;
#X obj 17 234 bng 15 250 50 0 analyze_folder empty empty 17 7 0 10
-262144 -1 -1;
#X text 38 213 clear previous analysis;
#X text 38 233 analyze folder (it might take a few seconds!);
#X text 736 43 song;
#X obj 4 141 cnv 15 770 30 empty verse2_canvas || E:maj A:maj E:maj A:maj ||
5 15 0 14 -166441 -66577 0;
#X obj 4 172 cnv 15 770 30 empty chorus2_canvas ||: A:maj Db:min A:maj Ab:maj :|| E:maj ||
5 15 0 14 -166441 -66577 0;
#X obj 333 209 cnv 15 220 70 empty empty empty 20 12 0 14 -261234 -66577
0;
#X obj 337 213 bng 15 250 50 0 write_song empty empty 17 7 0 10 -262144
-1 -1;
#X obj 337 233 bng 15 250 50 0 read_song empty empty 17 7 0 10 -262144
-1 -1;
#X text 358 231 read song from textfile (soon);
#X obj 563 209 cnv 15 210 70 empty empty empty 20 12 0 14 -261234 -66577
0;
#X obj 710 239 nbx 5 14 -1e+37 1e+37 0 0 strumming_speed set-strumming_speed
empty 0 -8 0 10 -262144 -1 -1 6 256;
#X obj 710 220 nbx 5 14 -1e+37 1e+37 0 0 tempo set-tempo empty 0 -8
0 10 -262144 -1 -1 160 256;
#X text 669 217 tempo;
#X obj 574 219 tgl 50 0 play set-play empty 17 7 0 10 -262144 -1 -1
0 1;
#X text 586 229 play;
#X text 586 244 song;
#X obj 600 83 cnv 15 170 115 empty empty empty 20 12 0 14 -261234 -66577
0;
#X symbolatom 604 105 3 0 0 0 - set-str1 str1;
#X symbolatom 624 105 3 0 0 0 - set-str2 str2;
#X symbolatom 644 105 3 0 0 0 - set-str3 str3;
#X symbolatom 664 105 3 0 0 0 - set-str4 str4;
#X symbolatom 684 105 3 0 0 0 - set-str5 str5;
#X symbolatom 704 105 3 0 0 0 - set-str6 str6;
#X symbolatom 724 105 3 0 0 0 - set-str7 str7;
#X symbolatom 744 105 3 0 0 0 - set-str8 str8;
#X text 605 85 strumming pattern;
#X text 605 124 d - down;
#X text 605 137 u - up;
#X text 605 153 r - ring;
#X text 605 167 dx - stop downward;
#X text 605 181 ux - stop upwards;
#X obj 333 253 cnv 15 220 25 empty empty empty 20 12 0 14 -258113 -66577
0;
#N canvas 987 808 776 447 notes 0;
#X text 10 9 SIMPLE SONG MAKER creates pop song's chord structures
based on corpus analysis of transcriptions downloaded from the internet.
The user could provide any corpus for analysis as separate textfiles
\, using the so-called Harte's notation (Harte \, 2005) \, a human/computer
readable notation for chord transcriptions (see "./files/chords_txt"
for an example of the formatting).;
#X text 400 49 (2) Press the "make song" button.;
#X text 400 29 (1) Select a key and mode for a new song.;
#X text 400 69 (3) Press the "play" toggle to start playing the song
back.;
#X text 400 89 The playback system outputs guitar-style strumming patterns
as midi-out events (more below). The user can choose the tempo of the
song and the strumming speed (a delay time between picking different
strings on a single stroke).;
#X text 400 209 d - down-stroke;
#X text 400 229 u - up-stroke;
#X text 400 249 r - let ring...;
#X text 550 209 dx - stop strings downwards;
#X text 550 229 ux - stop string upwards;
#X text 400 150 The user can also create a strumming pattern in quaver
resolution (8th's). She should create a sequence with the series of
symbols listed in the main window. This vocabulary will be expanded
in the near future:;
#X text 400 269 (4) The user can export the last generated song to
a textfile. The format of the textfile will be identical to that seen
on screen. In the near future \, it will also be possible to import
songs from textfiles;
#X text 400 329 (5) for analysis of a new or different corpus \, add
textfiles to the folder "./files/chords_txt" and use the buttons on
the lower right side of the main window.;
#X text 30 201 verse - verse - chorus - verse - chorus - chorus;
#X text 10 230 For the song generation \, a very simple sets of rules
is applied: (a) all verses start and end with the tonic chord (but
it is removed at the end to make a loop. (b) all choruses start with
any chord different from the tonic and last 4 bars. (c) all songs end
with the tonic chord.;
#X text 500 398 angel.faraldo@upf.edu --- Barcelona \, 2015;
#X text 10 310 MIDI OUTPUT;
#X text 10 330 SIMPLE SONG MAKER outputs midi note events in a guitar-like
manner. For that \, it uses channels 1-6 (one for each separate string).
You need to configure an external midi synthesizer to hear the output.
;
#X text 10 390 This program has been tested on Pd-extended 0.43.4 on
OSX and Ubuntu.;
#X text 10 109 By default \, results from the last corpus analyzed
are called on load \, so the user does not need to care about analyzing
a corpus before use.;
#X text 10 160 At the time being \, a single song structure is used
\, something that will be expanded in future versions:;
#X text 400 9 USAGE;
#X restore 339 258 pd notes and instructions;
#N canvas 734 504 423 160 guts 1;
#N canvas 673 708 442 231 krumhansl_profiles 0;
#X msg 5 124 6.33 2.68 3.52 5.38 2.6 3.53 2.54 4.75 3.98 2.69 3.34
3.17;
#X msg 32 44 6.35 2.23 3.48 2.33 4.38 4.09 2.52 5.19 2.39 3.66 2.29
2.88;
#X obj 5 23 t b b;
#X obj 5 2 r reset;
#X obj 32 84 tabset major;
#X obj 31 104 table major 12;
#X obj 5 164 tabset minor;
#X obj 5 184 table minor 12;
#X obj 32 64 abs/normalize;
#X obj 5 144 abs/normalize;
#X connect 0 0 9 0;
#X connect 1 0 8 0;
#X connect 2 0 0 0;
#X connect 2 1 1 0;
#X connect 3 0 2 0;
#X connect 8 0 4 0;
#X connect 9 0 6 0;
#X restore 17 56 pd krumhansl_profiles;
#X obj 217 36 table profile 12;
#N canvas 519 288 621 679 calculate_profiles_from_songs 0;
#X obj 89 299 textfile;
#X obj 54 95 bng 15 250 50 0 empty empty empty 17 7 0 10 -262144 -1
-1;
#X obj 32 373 unpack s s;
#N canvas 499 364 457 294 root 0;
#X obj 15 11 inlet;
#X obj 15 33 sel C Db D Eb E F Gb G Ab A Bb B;
#X msg 15 139 0;
#X msg 45 139 1;
#X msg 75 139 2;
#X msg 105 139 3;
#X msg 135 139 4;
#X msg 165 139 5;
#X msg 195 139 6;
#X msg 225 139 7;
#X msg 255 139 8;
#X msg 285 139 9;
#X msg 315 139 10;
#X msg 345 139 11;
#X obj 15 267 outlet;
#X msg 271 50 unrecognized pitch class;
#X obj 271 71 print ERROR;
#X connect 0 0 1 0;
#X connect 1 0 2 0;
#X connect 1 1 3 0;
#X connect 1 2 4 0;
#X connect 1 3 5 0;
#X connect 1 4 6 0;
#X connect 1 5 7 0;
#X connect 1 6 8 0;
#X connect 1 7 9 0;
#X connect 1 8 10 0;
#X connect 1 9 11 0;
#X connect 1 10 12 0;
#X connect 1 11 13 0;
#X connect 1 12 15 0;
#X connect 2 0 14 0;
#X connect 3 0 14 0;
#X connect 4 0 14 0;
#X connect 5 0 14 0;
#X connect 6 0 14 0;
#X connect 7 0 14 0;
#X connect 8 0 14 0;
#X connect 9 0 14 0;
#X connect 10 0 14 0;
#X connect 11 0 14 0;
#X connect 12 0 14 0;
#X connect 13 0 14 0;
#X connect 15 0 16 0;
#X restore 32 397 pd root;
#X obj 32 502 +;
#X obj 32 456 symbol;
#X obj 32 432 t b f;
#X obj 32 523 mod 12;
#X obj 32 544 t f f;
#X obj 32 298 until;
#X msg 32 252 read \$1 cr \, rewind \, bang;
#X obj 32 275 route bang;
#X obj 32 183 t s b;
#X obj 32 589 + 0.1;
#X msg 45 73 refresh;
#X obj 32 49 openpanel;
#X obj 32 30 bng 15 250 50 0 empty empty empty 17 7 0 10 -262144 -1
-1;
#X text 98 72 or get all content of a folder;
#X text 75 94 and retrieve files individually;
#N canvas 171 120 613 328 type 0;
#X obj 15 19 inlet;
#X obj 15 267 outlet;
#X obj 339 129 print ERROR;
#X msg 339 108 unrecognized chord type;
#X msg 15 159 0 \, 4 \, 7;
#X msg 132 159 0 \, 4 \, 8;
#X msg 192 159 0 \, 3 \, 6;
#X msg 312 159 0 \, 4 \, 7 \, 10;
#X msg 253 159 0 \, 5 \, 7;
#X msg 73 159 0 \, 3 \, 7;
#X obj 15 43 sel maj min aug dim sus4;
#X obj 312 86 sel 7;
#X obj 312 60 cyclone/fromsymbol;
#X connect 0 0 10 0;
#X connect 3 0 2 0;
#X connect 4 0 1 0;
#X connect 5 0 1 0;
#X connect 6 0 1 0;
#X connect 7 0 1 0;
#X connect 8 0 1 0;
#X connect 9 0 1 0;
#X connect 10 0 4 0;
#X connect 10 1 9 0;
#X connect 10 2 5 0;
#X connect 10 3 6 0;
#X connect 10 4 8 0;
#X connect 10 5 12 0;
#X connect 11 0 7 0;
#X connect 11 1 3 0;
#X connect 12 0 11 0;
#X restore 32 478 pd type;
#X obj 53 157 print filename;
#X obj 165 366 tabset profile;
#X obj 165 326 tabdump profile;
#X msg 59 205 \; profile const 0 \; reset bang;
#X obj 157 386 s end_file;
#X obj 32 611 tabwrite profile;
#X obj 32 566 tabread profile;
#X obj 97 411 s chord_type;
#X obj 97 433 s chord_root;
#X obj 289 92 metro 1000;
#X obj 289 24 r analyze_folder;
#X obj 301 135 ==;
#X obj 301 113 f 0;
#X obj 330 113 + 1;
#X obj 300 157 sel 1;
#X msg 300 177 0;
#X obj 289 47 t b b;
#X msg 328 47 0;
#X obj 42 134 abs/get_files /txt-chords/*.txt;
#X obj 165 346 abs/normalize;
#X obj 32 328 cyclone/tosymbol;
#X obj 32 351 jasch_lib/strtok :;
#X obj 410 42 bng 15 250 50 0 empty empty empty 17 7 0 10 -262144 -1
-1;
#X connect 0 0 40 0;
#X connect 0 1 9 1;
#X connect 0 1 22 0;
#X connect 0 1 24 0;
#X connect 1 0 38 0;
#X connect 2 0 3 0;
#X connect 2 1 27 0;
#X connect 2 1 5 1;
#X connect 3 0 6 0;
#X connect 3 0 28 0;
#X connect 4 0 7 0;
#X connect 5 0 19 0;
#X connect 6 0 5 0;
#X connect 6 1 4 1;
#X connect 7 0 8 0;
#X connect 8 0 26 0;
#X connect 8 1 25 1;
#X connect 9 0 0 0;
#X connect 10 0 11 0;
#X connect 11 0 9 0;
#X connect 11 1 0 0;
#X connect 12 0 10 0;
#X connect 12 1 23 0;
#X connect 13 0 25 0;
#X connect 14 0 38 0;
#X connect 15 0 12 0;
#X connect 16 0 15 0;
#X connect 19 0 4 0;
#X connect 22 0 39 0;
#X connect 26 0 13 0;
#X connect 29 0 32 0;
#X connect 29 0 38 0;
#X connect 30 0 36 0;
#X connect 31 0 34 0;
#X connect 32 0 33 0;
#X connect 32 0 31 0;
#X connect 33 0 32 1;
#X connect 34 0 35 0;
#X connect 35 0 29 0;
#X connect 36 0 29 0;
#X connect 36 1 37 0;
#X connect 36 1 14 0;
#X connect 37 0 32 1;
#X connect 38 0 12 0;
#X connect 38 0 20 0;
#X connect 38 1 31 1;
#X connect 39 0 21 0;
#X connect 40 0 41 0;
#X connect 41 0 2 0;
#X connect 42 0 36 0;
#X restore 17 36 pd calculate_profiles_from_songs;
#N canvas 216 213 526 784 estimate_key_of_songs 0;
#X obj 252 121 t b b;
#X obj 236 308 t l;
#X obj 153 391 list;
#X obj 199 187 tabdump;
#X obj 192 208 t b l;
#X obj 28 63 sel 12;
#X msg 250 78 1 2 3 4 5 6 7 8 9 10 11 12;
#X obj 133 33 t f b;
#X obj 147 307 list prepend;
#X obj 28 106 del 1;
#X obj 153 412 sort;
#X obj 147 370 sel 24;
#X obj 147 328 t l l;
#X obj 133 436 t l f;
#X obj 145 482 ==;
#X obj 153 592 list;
#X obj 105 482 sel 1;
#X obj 105 547 f 1;
#X obj 135 547 + 1;
#X msg 120 525 1;
#X obj 153 569 t b f;
#X obj 123 617 list split;
#N canvas 216 227 765 329 estimation 0;
#X obj 16 13 inlet;
#X obj 16 35 select 0 1 2 3 4 5 6 7 8 9 10 11 12 13 14 15 16 17 18
19 20 21 22 23;
#X msg 16 148 B;
#X msg 46 148 Bb;
#X msg 76 148 A;
#X msg 106 148 Ab;
#X msg 136 148 G;
#X msg 166 148 Gb;
#X msg 196 148 F;
#X msg 226 148 E;
#X msg 256 148 Eb;
#X msg 286 148 D;
#X msg 316 148 Db;
#X msg 346 148 C;
#X msg 376 148 Bm;
#X msg 406 148 Bbm;
#X msg 436 148 Am;
#X msg 466 148 Abm;
#X msg 496 148 Gm;
#X msg 526 148 Gbm;
#X msg 556 148 Fm;
#X msg 586 148 Em;
#X msg 616 148 Ebm;
#X msg 646 148 Dm;
#X msg 676 148 Dbm;
#X msg 706 148 Cm;
#X obj 16 294 outlet;
#X obj 16 273 cyclone/tosymbol;
#X connect 0 0 1 0;
#X connect 1 0 2 0;
#X connect 1 1 3 0;
#X connect 1 2 4 0;
#X connect 1 3 5 0;
#X connect 1 4 6 0;
#X connect 1 5 7 0;
#X connect 1 6 8 0;
#X connect 1 7 9 0;
#X connect 1 8 10 0;
#X connect 1 9 11 0;
#X connect 1 10 12 0;
#X connect 1 11 13 0;
#X connect 1 12 14 0;
#X connect 1 13 15 0;
#X connect 1 14 16 0;
#X connect 1 15 17 0;
#X connect 1 16 18 0;
#X connect 1 17 19 0;
#X connect 1 18 20 0;
#X connect 1 19 21 0;
#X connect 1 20 22 0;
#X connect 1 21 23 0;
#X connect 1 22 24 0;
#X connect 1 23 25 0;
#X connect 2 0 27 0;
#X connect 3 0 27 0;
#X connect 4 0 27 0;
#X connect 5 0 27 0;
#X connect 6 0 27 0;
#X connect 7 0 27 0;
#X connect 8 0 27 0;
#X connect 9 0 27 0;
#X connect 10 0 27 0;
#X connect 11 0 27 0;
#X connect 12 0 27 0;
#X connect 13 0 27 0;
#X connect 14 0 27 0;
#X connect 15 0 27 0;
#X connect 16 0 27 0;
#X connect 17 0 27 0;
#X connect 18 0 27 0;
#X connect 19 0 27 0;
#X connect 20 0 27 0;
#X connect 21 0 27 0;
#X connect 22 0 27 0;
#X connect 23 0 27 0;
#X connect 24 0 27 0;
#X connect 25 0 27 0;
#X connect 27 0 26 0;
#X restore 180 683 pd estimation;
#X obj 123 661 route bang;
#X obj 147 349 list length;
#X obj 123 639 drip;
#X obj 133 457 drip;
#X obj 187 705 s key_estimation;
#X msg 28 127 set minor \, bang;
#X obj 91 64 r reset;
#X obj 252 100 r end_file;
#X msg 199 165 set major \, bang;
#X obj 324 204 tabdump profile;
#X obj 216 284 r reset;
#X obj 120 503 r reset;
#X obj 180 725 print ESTIMATION;
#X obj 28 85 iemlib/once;
#X obj 147 260 abs/euclidean_distance;
#X obj 129 239 abs/list_rotate;
#X obj 133 11 drip 1;
#X connect 0 0 31 0;
#X connect 0 1 32 0;
#X connect 1 0 8 1;
#X connect 2 0 10 0;
#X connect 3 0 4 0;
#X connect 4 0 6 0;
#X connect 4 1 38 1;
#X connect 5 0 36 0;
#X connect 6 0 39 0;
#X connect 7 0 5 0;
#X connect 7 1 38 0;
#X connect 8 0 1 0;
#X connect 8 0 12 0;
#X connect 9 0 28 0;
#X connect 10 0 13 0;
#X connect 10 1 15 1;
#X connect 11 0 2 0;
#X connect 12 0 24 0;
#X connect 12 1 2 1;
#X connect 13 0 26 0;
#X connect 13 1 14 1;
#X connect 14 0 16 0;
#X connect 15 0 21 0;
#X connect 16 0 17 0;
#X connect 17 0 18 0;
#X connect 17 0 20 0;
#X connect 18 0 17 1;
#X connect 19 0 17 1;
#X connect 20 0 15 0;
#X connect 20 1 21 1;
#X connect 21 0 25 0;
#X connect 22 0 27 0;
#X connect 22 0 35 0;
#X connect 23 1 22 0;
#X connect 24 0 11 0;
#X connect 25 0 23 0;
#X connect 26 0 14 0;
#X connect 28 0 3 0;
#X connect 29 0 36 1;
#X connect 30 0 0 0;
#X connect 31 0 3 0;
#X connect 32 0 37 1;
#X connect 33 0 8 1;
#X connect 34 0 19 0;
#X connect 36 0 9 0;
#X connect 37 0 8 0;
#X connect 38 0 37 0;
#X connect 39 0 7 0;
#X restore 151 56 pd estimate_key_of_songs;
#N canvas 647 266 565 819 make_1st_order_chord_transition_tables 0
;
#X obj 135 50 sel maj min aug dim sus4;
#X obj 276 93 sel 7;
#X msg 163 116 1;
#X msg 191 116 2;
#X msg 219 116 3;
#X msg 247 116 4;
#X msg 276 116 5;
#X msg 135 116 0;
#X obj 135 159 * 12;
#X obj 148 182 r key_estimation;
#X obj 23 336 -;
#X obj 98 256 t l;
#X obj 44 222 list prepend;
#X obj 23 300 drip 0;
#X obj 23 276 list;
#X obj 193 346 t l;
#X obj 135 322 list prepend;
#X obj 114 368 drip 0;
#X obj 114 345 list;
#X obj 23 361 mod 12;
#X obj 99 390 +;
#X obj 193 486 pack f f;
#X obj 254 486 t f;
#X msg 193 728 \$2 \$1;
#X obj 287 768 s;
#X obj 302 495 sel 0 1;
#X obj 402 504 loadbang;
#X obj 302 563 makefilename fill_table-%s;
#X msg 402 528 symbol minor;
#X msg 302 527 symbol major;
#X obj 193 445 swap;
#X obj 258 591 r key_estimation;
#X obj 193 705 spigot;
#X msg 258 678 0;
#X obj 258 614 t b b;
#X msg 226 678 1;
#X obj 193 508 t b l;
#X obj 135 28 r chord_type;
#X obj 44 29 r chord_root;
#X obj 148 205 t b b b s;
#X obj 302 472 change -1234;
#X text 70 769 we could print transitions here...;
#X obj 226 650 iemlib/once;
#X obj 276 71 cyclone/fromsymbol;
#X obj 199 228 abs/key2pc;
#X obj 193 419 list prepend;
#X floatatom 292 276 5 0 0 0 - - -;
#X msg 330 189 symbol Am;
#X connect 0 0 7 0;
#X connect 0 1 2 0;
#X connect 0 2 3 0;
#X connect 0 3 4 0;
#X connect 0 4 5 0;
#X connect 0 5 43 0;
#X connect 1 0 6 0;
#X connect 2 0 8 0;
#X connect 3 0 8 0;
#X connect 4 0 8 0;
#X connect 5 0 8 0;
#X connect 6 0 8 0;
#X connect 7 0 8 0;
#X connect 8 0 16 0;
#X connect 9 0 39 0;
#X connect 10 0 19 0;
#X connect 11 0 12 1;
#X connect 12 0 11 0;
#X connect 12 0 14 1;
#X connect 13 0 10 0;
#X connect 14 0 13 0;
#X connect 15 0 16 1;
#X connect 16 0 15 0;
#X connect 16 0 18 1;
#X connect 17 0 20 1;
#X connect 18 0 17 0;
#X connect 19 0 20 0;
#X connect 20 0 45 0;
#X connect 21 0 22 0;
#X connect 21 0 36 0;
#X connect 22 0 21 1;
#X connect 23 0 24 0;
#X connect 25 0 29 0;
#X connect 25 1 28 0;
#X connect 26 0 28 0;
#X connect 27 0 24 1;
#X connect 28 0 27 0;
#X connect 29 0 27 0;
#X connect 30 0 21 0;
#X connect 30 1 40 0;
#X connect 31 0 34 0;
#X connect 32 0 23 0;
#X connect 33 0 32 1;
#X connect 34 0 33 0;
#X connect 34 1 42 1;
#X connect 35 0 32 1;
#X connect 36 0 42 0;
#X connect 36 1 32 0;
#X connect 37 0 0 0;
#X connect 38 0 12 0;
#X connect 39 0 12 1;
#X connect 39 0 16 1;
#X connect 39 1 14 0;
#X connect 39 2 18 0;
#X connect 39 3 44 0;
#X connect 40 0 25 0;
#X connect 42 0 35 0;
#X connect 43 0 1 0;
#X connect 44 0 10 1;
#X connect 44 1 46 0;
#X connect 44 1 45 1;
#X connect 45 0 30 0;
#X connect 47 0 44 0;
#X restore 17 76 pd make_1st_order_chord_transition_tables;
#N canvas 635 179 442 1032 transition_tables 0;
#X obj 39 402 abs/tab72 15 minor;
#X obj 39 27 abs/tab72 0 minor;
#X obj 39 327 abs/tab72 12 minor;
#X obj 39 52 abs/tab72 1 minor;
#X obj 39 77 abs/tab72 2 minor;
#X obj 39 102 abs/tab72 3 minor;
#X obj 39 127 abs/tab72 4 minor;
#X obj 39 152 abs/tab72 5 minor;
#X obj 39 177 abs/tab72 6 minor;
#X obj 39 202 abs/tab72 7 minor;
#X obj 39 227 abs/tab72 8 minor;
#X obj 39 252 abs/tab72 9 minor;
#X obj 39 277 abs/tab72 10 minor;
#X obj 39 302 abs/tab72 11 minor;
#X obj 39 352 abs/tab72 13 minor;
#X obj 39 377 abs/tab72 14 minor;
#X obj 39 427 abs/tab72 16 minor;
#X obj 39 452 abs/tab72 17 minor;
#X obj 39 477 abs/tab72 18 minor;
#X obj 39 502 abs/tab72 19 minor;
#X obj 39 527 abs/tab72 20 minor;
#X obj 39 552 abs/tab72 21 minor;
#X obj 39 577 abs/tab72 22 minor;
#X obj 39 602 abs/tab72 23 minor;
#X obj 39 627 abs/tab72 24 minor;
#X obj 39 652 abs/tab72 25 minor;
#X obj 39 677 abs/tab72 26 minor;
#X obj 39 702 abs/tab72 27 minor;
#X obj 39 727 abs/tab72 28 minor;
#X obj 39 752 abs/tab72 29 minor;
#X obj 39 777 abs/tab72 30 minor;
#X obj 39 802 abs/tab72 31 minor;
#X obj 39 827 abs/tab72 32 minor;
#X obj 39 852 abs/tab72 33 minor;
#X obj 39 877 abs/tab72 34 minor;
#X obj 39 902 abs/tab72 35 minor;
#X obj 39 927 abs/tab72 36 minor;
#X obj 39 952 abs/tab72 37 minor;
#X obj 39 977 abs/tab72 38 minor;
#X obj 39 1002 abs/tab72 39 minor;
#X obj 39 1027 abs/tab72 40 minor;
#X obj 39 1052 abs/tab72 41 minor;
#X obj 39 1077 abs/tab72 42 minor;
#X obj 39 1102 abs/tab72 43 minor;
#X obj 39 1127 abs/tab72 44 minor;
#X obj 39 1152 abs/tab72 45 minor;
#X obj 39 1177 abs/tab72 46 minor;
#X obj 39 1202 abs/tab72 47 minor;
#X obj 39 1227 abs/tab72 48 minor;
#X obj 39 1252 abs/tab72 49 minor;
#X obj 39 1277 abs/tab72 50 minor;
#X obj 39 1302 abs/tab72 51 minor;
#X obj 39 1327 abs/tab72 52 minor;
#X obj 39 1352 abs/tab72 53 minor;
#X obj 39 1377 abs/tab72 54 minor;
#X obj 39 1402 abs/tab72 55 minor;
#X obj 39 1427 abs/tab72 56 minor;
#X obj 39 1452 abs/tab72 57 minor;
#X obj 39 1477 abs/tab72 58 minor;
#X obj 39 1502 abs/tab72 59 minor;
#X obj 39 1527 abs/tab72 60 minor;
#X obj 39 1552 abs/tab72 61 minor;
#X obj 39 1577 abs/tab72 62 minor;
#X obj 39 1602 abs/tab72 63 minor;
#X obj 39 1627 abs/tab72 64 minor;
#X obj 39 1652 abs/tab72 65 minor;
#X obj 39 1677 abs/tab72 66 minor;
#X obj 39 1702 abs/tab72 67 minor;
#X obj 39 1727 abs/tab72 68 minor;
#X obj 39 1752 abs/tab72 69 minor;
#X obj 39 1777 abs/tab72 70 minor;
#X obj 39 1802 abs/tab72 71 minor;
#X obj 159 27 abs/tab72 0 major;
#X obj 159 52 abs/tab72 1 major;
#X obj 159 77 abs/tab72 2 major;
#X obj 159 102 abs/tab72 3 major;
#X obj 159 127 abs/tab72 4 major;
#X obj 159 152 abs/tab72 5 major;
#X obj 159 177 abs/tab72 6 major;
#X obj 159 202 abs/tab72 7 major;
#X obj 159 227 abs/tab72 8 major;
#X obj 159 252 abs/tab72 9 major;
#X obj 159 277 abs/tab72 10 major;
#X obj 159 302 abs/tab72 11 major;
#X obj 159 327 abs/tab72 12 major;
#X obj 159 352 abs/tab72 13 major;
#X obj 159 377 abs/tab72 14 major;
#X obj 159 402 abs/tab72 15 major;
#X obj 159 427 abs/tab72 16 major;
#X obj 159 452 abs/tab72 17 major;
#X obj 159 477 abs/tab72 18 major;
#X obj 159 502 abs/tab72 19 major;
#X obj 159 527 abs/tab72 20 major;
#X obj 159 552 abs/tab72 21 major;
#X obj 159 577 abs/tab72 22 major;
#X obj 159 602 abs/tab72 23 major;
#X obj 159 627 abs/tab72 24 major;
#X obj 159 652 abs/tab72 25 major;
#X obj 159 677 abs/tab72 26 major;
#X obj 159 702 abs/tab72 27 major;
#X obj 159 727 abs/tab72 28 major;
#X obj 159 752 abs/tab72 29 major;
#X obj 159 777 abs/tab72 30 major;
#X obj 159 802 abs/tab72 31 major;
#X obj 159 827 abs/tab72 32 major;
#X obj 159 852 abs/tab72 33 major;
#X obj 159 877 abs/tab72 34 major;
#X obj 159 902 abs/tab72 35 major;
#X obj 159 927 abs/tab72 36 major;
#X obj 159 952 abs/tab72 37 major;
#X obj 159 977 abs/tab72 38 major;
#X obj 159 1002 abs/tab72 39 major;
#X obj 159 1027 abs/tab72 40 major;
#X obj 159 1052 abs/tab72 41 major;
#X obj 159 1077 abs/tab72 42 major;
#X obj 159 1102 abs/tab72 43 major;
#X obj 159 1127 abs/tab72 44 major;
#X obj 159 1152 abs/tab72 45 major;
#X obj 159 1177 abs/tab72 46 major;
#X obj 159 1202 abs/tab72 47 major;
#X obj 159 1227 abs/tab72 48 major;
#X obj 159 1252 abs/tab72 49 major;
#X obj 159 1277 abs/tab72 50 major;
#X obj 159 1302 abs/tab72 51 major;
#X obj 159 1327 abs/tab72 52 major;
#X obj 159 1352 abs/tab72 53 major;
#X obj 159 1377 abs/tab72 54 major;
#X obj 159 1402 abs/tab72 55 major;
#X obj 159 1427 abs/tab72 56 major;
#X obj 159 1452 abs/tab72 57 major;
#X obj 159 1477 abs/tab72 58 major;
#X obj 159 1502 abs/tab72 59 major;
#X obj 159 1527 abs/tab72 60 major;
#X obj 159 1552 abs/tab72 61 major;
#X obj 159 1577 abs/tab72 62 major;
#X obj 159 1602 abs/tab72 63 major;
#X obj 159 1627 abs/tab72 64 major;
#X obj 159 1652 abs/tab72 65 major;
#X obj 159 1677 abs/tab72 66 major;
#X obj 159 1702 abs/tab72 67 major;
#X obj 159 1727 abs/tab72 68 major;
#X obj 159 1752 abs/tab72 69 major;
#X obj 159 1777 abs/tab72 70 major;
#X obj 159 1802 abs/tab72 71 major;
#X obj 39 1832 abs/tab72 72 minor;
#X obj 165 1832 abs/tab72 72 major;
#X restore 271 76 pd transition_tables;
#N canvas 986 350 1275 796 generate_song 0;
#X obj 174 105 route 0 1;
#X obj 228 49 t f f;
#X obj 42 94 sel 0 1;
#X msg 42 116 0;
#X msg 72 116 12;
#X msg 105 148 stop;
#X obj 105 270 s next_table;
#X obj 147 25 r next_table;
#X obj 27 143 f 0;
#X obj 147 45 t b f;
#X obj 105 245 t f f;
#X obj 73 378 t l l;
#X obj 73 400 list length;
#X obj 73 423 sel 4;
#X obj 73 445 list;
#X obj 73 357 list prepend;
#X obj 46 336 sel 0;
#X obj 330 332 list prepend;
#X obj 330 354 t l l;
#X obj 357 377 list length;
#X msg 23 630 0;
#X obj 73 467 t b l;
#X obj 330 444 spigot;
#X obj 357 422 > 4;
#X obj 330 465 list split;
#X obj 357 398 t f f;
#X obj 387 445 - 1;
#X obj 520 497 sel 0;
#X obj 823 66 list;
#X obj 205 289 route 1 0;
#X obj 292 194 r song_part;
#X msg 305 235 0;
#X msg 520 519 1;
#X obj 520 540 s song_part;
#X msg 1023 101 0 0 1 0 1 1 2;
#X obj 1023 144 sel 0 1 2;
#X obj 844 46 r chorus;
#X obj 330 670 s verse;
#X msg 174 147 set major-\$1 \, bang;
#X msg 199 127 set minor-\$1 \, bang;
#X obj 174 171 tabdump major-0;
#X obj 23 650 s song_done;
#X obj 105 195 delay 10;
#X obj 105 125 r song_done;
#X obj 27 27 r make_song;
#X obj 399 310 r make_song;
#X obj 305 214 r make_song;
#X obj 1145 38 r song_done;
#X obj 829 621 l2s;
#X obj 664 49 t b b;
#X msg 829 643 label \$1;
#X obj 1039 206 list;
#X obj 986 195 list;
#X obj 1060 184 r chorus;
#X obj 1007 174 r verse;
#X obj 1039 317 t l;
#X obj 1145 61 t b b;
#X obj 1076 340 list;
#X obj 1103 317 list prepend;
#X obj 1076 364 s complete_song;
#X obj 823 158 list prepend;
#X obj 925 160 t l;
#X obj 892 134 r make_song;
#X obj 900 105 list length;
#X obj 823 88 t l l;
#X obj 664 26 r song_done;
#X obj 829 277 list;
#X obj 823 205 list length;
#X obj 823 182 t l l;
#X obj 823 230 ==;
#X obj 829 254 sel 1;
#X obj 664 94 list;
#X obj 610 622 l2s;
#X msg 610 644 label \$1;
#X obj 664 186 list prepend;
#X obj 766 188 t l;
#X obj 733 162 r make_song;
#X obj 751 133 list length;
#X obj 664 116 t l l;
#X obj 670 305 list;
#X obj 664 233 list length;
#X obj 664 210 t l l;
#X obj 664 258 ==;
#X obj 670 282 sel 1;
#X obj 685 74 r verse;
#X obj 23 610 del 1;
#X obj 1023 123 drip;
#X obj 228 25 r key_mode;
#X obj 610 665 s verse1_canvas;
#X obj 720 622 l2s;
#X msg 720 644 label \$1;
#X obj 720 665 s verse2_canvas;
#X obj 949 622 l2s;
#X msg 949 643 label \$1;
#X obj 829 665 s chorus1_canvas;
#X obj 949 665 s chorus2_canvas;
#X obj 610 516 list prepend ||:;
#X obj 610 538 list append :||;
#X obj 720 516 list prepend ||;
#X obj 720 538 list append ||;
#X obj 829 537 list append ||;
#X obj 829 515 list prepend ||;
#X obj 949 413 list prepend ||:;
#X obj 1030 556 l2s;
#X obj 949 598 list append ||;
#X obj 1030 578 list append ||;
#X obj 447 583 r key_root;
#X obj 330 491 t l l;
#X obj 217 563 r key_root;
#X obj 100 491 t l l;
#X obj 100 650 s chorus;
#X obj 1117 184 r verse;
#X obj 1076 235 list split 1;
#X obj 1076 214 list;
#X obj 1076 259 t b f;
#X obj 1051 445 r verse;
#X obj 1030 488 list split 1;
#X obj 1030 465 list;
#X obj 949 437 t l b;
#X obj 622 565 s verse1;
#X obj 732 565 s verse2;
#X obj 842 563 s chorus1;
#X obj 1015 629 s chorus2;
#X obj 174 83 list prepend;
#N canvas 138 50 1280 717 chordname 0;
#X obj 71 -73 inlet;
#X obj 521 581 outlet;
#X obj 71 -19 sel 0 1 2 3 4 5 6 7 8 9 10 11 12 13 14 15 16 17 18 19
20 21 22 23 24 25 26 27 28 29 30 31 32 33 34 35 36 37 38 39 40 41 42
43 44 45 46 47 48 49 50 51 52 53 54 55 56 57 58 59 60 61 62 63 64 65
66 67 68 69 70 71;
#X obj 71 -47 drip;
#X msg 161 152 Db:min;
#X msg 71 92 C:maj;
#X msg 161 92 Db:maj;
#X msg 251 92 D:maj;
#X msg 341 92 Eb:maj;
#X msg 431 92 E:maj;
#X msg 521 92 F:maj;
#X msg 611 92 Gb:maj;
#X msg 701 92 G:maj;
#X msg 791 92 Ab:maj;
#X msg 881 92 A:maj;
#X msg 971 92 Bb:maj;
#X msg 1061 92 B:maj;
#X msg 1101 152 B:min;
#X msg 972 152 Bb:min;
#X msg 881 152 A:min;
#X msg 791 152 Ab:min;
#X msg 701 152 G:min;
#X msg 611 152 Gb:min;
#X msg 521 152 F:min;
#X msg 431 152 E:min;
#X msg 341 152 Eb:min;
#X msg 251 152 D:min;
#X msg 72 152 C:min;
#X msg 71 210 C:aug;
#X msg 71 272 C:dim;
#X msg 71 332 C:sus4;
#X msg 71 392 C:7;
#X msg 161 392 Db:7;
#X msg 251 392 D:7;
#X msg 341 392 Eb:7;
#X msg 431 392 E:7;
#X msg 521 392 F:7;
#X msg 611 392 Gb:7;
#X msg 701 392 G:7;
#X msg 791 392 Ab:7;
#X msg 881 392 A:7;
#X msg 971 392 Bb:7;
#X msg 1061 392 B:7;
#X msg 1061 332 B:sus4;
#X msg 971 332 Bb:sus4;
#X msg 881 332 A:sus4;
#X msg 791 332 Ab:sus4;
#X msg 701 332 G:sus4;
#X msg 611 331 Gb:sus4;
#X msg 521 332 F:sus4;
#X msg 431 332 E:sus4;
#X msg 341 332 Eb:sus4;
#X msg 251 332 D:sus4;
#X msg 161 332 Db:sus4;
#X msg 161 272 Db:dim;
#X msg 161 210 Db:aug;
#X msg 251 210 D:aug;
#X msg 341 210 Eb:aug;
#X msg 431 210 E:aug;
#X msg 521 210 F:aug;
#X msg 611 210 Gb:aug;
#X msg 701 210 G:aug;
#X msg 791 210 Ab:aug;
#X msg 881 210 A:aug;
#X msg 971 210 Bb:aug;
#X msg 1061 210 B:aug;
#X msg 1061 272 B:dim;
#X msg 971 272 Bb:dim;
#X msg 881 272 A:dim;
#X msg 791 271 Ab:dim;
#X msg 701 272 G:dim;
#X msg 611 272 Gb:dim;
#X msg 521 272 F:dim;
#X msg 431 272 E:dim;
#X msg 341 272 Eb:dim;
#X msg 251 272 D:dim;
#X connect 0 0 3 0;
#X connect 2 0 5 0;
#X connect 2 1 6 0;
#X connect 2 2 7 0;
#X connect 2 3 8 0;
#X connect 2 4 9 0;
#X connect 2 5 10 0;
#X connect 2 6 11 0;
#X connect 2 7 12 0;
#X connect 2 8 13 0;
#X connect 2 9 14 0;
#X connect 2 10 15 0;
#X connect 2 11 16 0;
#X connect 2 12 27 0;
#X connect 2 13 4 0;
#X connect 2 14 26 0;
#X connect 2 15 25 0;
#X connect 2 16 24 0;
#X connect 2 17 23 0;
#X connect 2 18 22 0;
#X connect 2 19 21 0;
#X connect 2 20 20 0;
#X connect 2 21 19 0;
#X connect 2 22 18 0;
#X connect 2 23 17 0;
#X connect 2 24 28 0;
#X connect 2 25 55 0;
#X connect 2 26 56 0;
#X connect 2 27 57 0;
#X connect 2 28 58 0;
#X connect 2 29 59 0;
#X connect 2 30 60 0;
#X connect 2 31 61 0;
#X connect 2 32 62 0;
#X connect 2 33 63 0;
#X connect 2 34 64 0;
#X connect 2 35 65 0;
#X connect 2 36 29 0;
#X connect 2 37 54 0;
#X connect 2 38 75 0;
#X connect 2 39 74 0;
#X connect 2 40 73 0;
#X connect 2 41 72 0;
#X connect 2 42 71 0;
#X connect 2 43 70 0;
#X connect 2 44 69 0;
#X connect 2 45 68 0;
#X connect 2 46 67 0;
#X connect 2 47 66 0;
#X connect 2 48 30 0;
#X connect 2 49 53 0;
#X connect 2 50 52 0;
#X connect 2 51 51 0;
#X connect 2 52 50 0;
#X connect 2 53 49 0;
#X connect 2 54 48 0;
#X connect 2 55 47 0;
#X connect 2 56 46 0;
#X connect 2 57 45 0;
#X connect 2 58 44 0;
#X connect 2 59 43 0;
#X connect 2 60 31 0;
#X connect 2 61 32 0;
#X connect 2 62 33 0;
#X connect 2 63 34 0;
#X connect 2 64 35 0;
#X connect 2 65 36 0;
#X connect 2 66 37 0;
#X connect 2 67 38 0;
#X connect 2 68 39 0;
#X connect 2 69 40 0;
#X connect 2 70 41 0;
#X connect 2 71 42 0;
#X connect 3 0 2 0;
#X connect 4 0 1 0;
#X connect 5 0 1 0;
#X connect 6 0 1 0;
#X connect 7 0 1 0;
#X connect 8 0 1 0;
#X connect 9 0 1 0;
#X connect 10 0 1 0;
#X connect 11 0 1 0;
#X connect 12 0 1 0;
#X connect 13 0 1 0;
#X connect 14 0 1 0;
#X connect 15 0 1 0;
#X connect 16 0 1 0;
#X connect 17 0 1 0;
#X connect 18 0 1 0;
#X connect 19 0 1 0;
#X connect 20 0 1 0;
#X connect 21 0 1 0;
#X connect 22 0 1 0;
#X connect 23 0 1 0;
#X connect 24 0 1 0;
#X connect 25 0 1 0;
#X connect 26 0 1 0;
#X connect 27 0 1 0;
#X connect 28 0 1 0;
#X connect 29 0 1 0;
#X connect 30 0 1 0;
#X connect 31 0 1 0;
#X connect 32 0 1 0;
#X connect 33 0 1 0;
#X connect 34 0 1 0;
#X connect 35 0 1 0;
#X connect 36 0 1 0;
#X connect 37 0 1 0;
#X connect 38 0 1 0;
#X connect 39 0 1 0;
#X connect 40 0 1 0;
#X connect 41 0 1 0;
#X connect 42 0 1 0;
#X connect 43 0 1 0;
#X connect 44 0 1 0;
#X connect 45 0 1 0;
#X connect 46 0 1 0;
#X connect 47 0 1 0;
#X connect 48 0 1 0;
#X connect 49 0 1 0;
#X connect 50 0 1 0;
#X connect 51 0 1 0;
#X connect 52 0 1 0;
#X connect 53 0 1 0;
#X connect 54 0 1 0;
#X connect 55 0 1 0;
#X connect 56 0 1 0;
#X connect 57 0 1 0;
#X connect 58 0 1 0;
#X connect 59 0 1 0;
#X connect 60 0 1 0;
#X connect 61 0 1 0;
#X connect 62 0 1 0;
#X connect 63 0 1 0;
#X connect 64 0 1 0;
#X connect 65 0 1 0;
#X connect 66 0 1 0;
#X connect 67 0 1 0;
#X connect 68 0 1 0;
#X connect 69 0 1 0;
#X connect 70 0 1 0;
#X connect 71 0 1 0;
#X connect 72 0 1 0;
#X connect 73 0 1 0;
#X connect 74 0 1 0;
#X connect 75 0 1 0;
#X restore 664 139 pd chordname;
#N canvas 138 50 1280 717 chordname 0;
#X obj 71 -73 inlet;
#X obj 521 581 outlet;
#X obj 71 -19 sel 0 1 2 3 4 5 6 7 8 9 10 11 12 13 14 15 16 17 18 19
20 21 22 23 24 25 26 27 28 29 30 31 32 33 34 35 36 37 38 39 40 41 42
43 44 45 46 47 48 49 50 51 52 53 54 55 56 57 58 59 60 61 62 63 64 65
66 67 68 69 70 71;
#X obj 71 -47 drip;
#X msg 161 152 Db:min;
#X msg 71 92 C:maj;
#X msg 161 92 Db:maj;
#X msg 251 92 D:maj;
#X msg 341 92 Eb:maj;
#X msg 431 92 E:maj;
#X msg 521 92 F:maj;
#X msg 611 92 Gb:maj;
#X msg 701 92 G:maj;
#X msg 791 92 Ab:maj;
#X msg 881 92 A:maj;
#X msg 971 92 Bb:maj;
#X msg 1061 92 B:maj;
#X msg 1101 152 B:min;
#X msg 972 152 Bb:min;
#X msg 881 152 A:min;
#X msg 791 152 Ab:min;
#X msg 701 152 G:min;
#X msg 611 152 Gb:min;
#X msg 521 152 F:min;
#X msg 431 152 E:min;
#X msg 341 152 Eb:min;
#X msg 251 152 D:min;
#X msg 72 152 C:min;
#X msg 71 210 C:aug;
#X msg 71 272 C:dim;
#X msg 71 332 C:sus4;
#X msg 71 392 C:7;
#X msg 161 392 Db:7;
#X msg 251 392 D:7;
#X msg 341 392 Eb:7;
#X msg 431 392 E:7;
#X msg 521 392 F:7;
#X msg 611 392 Gb:7;
#X msg 701 392 G:7;
#X msg 791 392 Ab:7;
#X msg 881 392 A:7;
#X msg 971 392 Bb:7;
#X msg 1061 392 B:7;
#X msg 1061 332 B:sus4;
#X msg 971 332 Bb:sus4;
#X msg 881 332 A:sus4;
#X msg 791 332 Ab:sus4;
#X msg 701 332 G:sus4;
#X msg 611 331 Gb:sus4;
#X msg 521 332 F:sus4;
#X msg 431 332 E:sus4;
#X msg 341 332 Eb:sus4;
#X msg 251 332 D:sus4;
#X msg 161 332 Db:sus4;
#X msg 161 272 Db:dim;
#X msg 161 210 Db:aug;
#X msg 251 210 D:aug;
#X msg 341 210 Eb:aug;
#X msg 431 210 E:aug;
#X msg 521 210 F:aug;
#X msg 611 210 Gb:aug;
#X msg 701 210 G:aug;
#X msg 791 210 Ab:aug;
#X msg 881 210 A:aug;
#X msg 971 210 Bb:aug;
#X msg 1061 210 B:aug;
#X msg 1061 272 B:dim;
#X msg 971 272 Bb:dim;
#X msg 881 272 A:dim;
#X msg 791 271 Ab:dim;
#X msg 701 272 G:dim;
#X msg 611 272 Gb:dim;
#X msg 521 272 F:dim;
#X msg 431 272 E:dim;
#X msg 341 272 Eb:dim;
#X msg 251 272 D:dim;
#X connect 0 0 3 0;
#X connect 2 0 5 0;
#X connect 2 1 6 0;
#X connect 2 2 7 0;
#X connect 2 3 8 0;
#X connect 2 4 9 0;
#X connect 2 5 10 0;
#X connect 2 6 11 0;
#X connect 2 7 12 0;
#X connect 2 8 13 0;
#X connect 2 9 14 0;
#X connect 2 10 15 0;
#X connect 2 11 16 0;
#X connect 2 12 27 0;
#X connect 2 13 4 0;
#X connect 2 14 26 0;
#X connect 2 15 25 0;
#X connect 2 16 24 0;
#X connect 2 17 23 0;
#X connect 2 18 22 0;
#X connect 2 19 21 0;
#X connect 2 20 20 0;
#X connect 2 21 19 0;
#X connect 2 22 18 0;
#X connect 2 23 17 0;
#X connect 2 24 28 0;
#X connect 2 25 55 0;
#X connect 2 26 56 0;
#X connect 2 27 57 0;
#X connect 2 28 58 0;
#X connect 2 29 59 0;
#X connect 2 30 60 0;
#X connect 2 31 61 0;
#X connect 2 32 62 0;
#X connect 2 33 63 0;
#X connect 2 34 64 0;
#X connect 2 35 65 0;
#X connect 2 36 29 0;
#X connect 2 37 54 0;
#X connect 2 38 75 0;
#X connect 2 39 74 0;
#X connect 2 40 73 0;
#X connect 2 41 72 0;
#X connect 2 42 71 0;
#X connect 2 43 70 0;
#X connect 2 44 69 0;
#X connect 2 45 68 0;
#X connect 2 46 67 0;
#X connect 2 47 66 0;
#X connect 2 48 30 0;
#X connect 2 49 53 0;
#X connect 2 50 52 0;
#X connect 2 51 51 0;
#X connect 2 52 50 0;
#X connect 2 53 49 0;
#X connect 2 54 48 0;
#X connect 2 55 47 0;
#X connect 2 56 46 0;
#X connect 2 57 45 0;
#X connect 2 58 44 0;
#X connect 2 59 43 0;
#X connect 2 60 31 0;
#X connect 2 61 32 0;
#X connect 2 62 33 0;
#X connect 2 63 34 0;
#X connect 2 64 35 0;
#X connect 2 65 36 0;
#X connect 2 66 37 0;
#X connect 2 67 38 0;
#X connect 2 68 39 0;
#X connect 2 69 40 0;
#X connect 2 70 41 0;
#X connect 2 71 42 0;
#X connect 3 0 2 0;
#X connect 4 0 1 0;
#X connect 5 0 1 0;
#X connect 6 0 1 0;
#X connect 7 0 1 0;
#X connect 8 0 1 0;
#X connect 9 0 1 0;
#X connect 10 0 1 0;
#X connect 11 0 1 0;
#X connect 12 0 1 0;
#X connect 13 0 1 0;
#X connect 14 0 1 0;
#X connect 15 0 1 0;
#X connect 16 0 1 0;
#X connect 17 0 1 0;
#X connect 18 0 1 0;
#X connect 19 0 1 0;
#X connect 20 0 1 0;
#X connect 21 0 1 0;
#X connect 22 0 1 0;
#X connect 23 0 1 0;
#X connect 24 0 1 0;
#X connect 25 0 1 0;
#X connect 26 0 1 0;
#X connect 27 0 1 0;
#X connect 28 0 1 0;
#X connect 29 0 1 0;
#X connect 30 0 1 0;
#X connect 31 0 1 0;
#X connect 32 0 1 0;
#X connect 33 0 1 0;
#X connect 34 0 1 0;
#X connect 35 0 1 0;
#X connect 36 0 1 0;
#X connect 37 0 1 0;
#X connect 38 0 1 0;
#X connect 39 0 1 0;
#X connect 40 0 1 0;
#X connect 41 0 1 0;
#X connect 42 0 1 0;
#X connect 43 0 1 0;
#X connect 44 0 1 0;
#X connect 45 0 1 0;
#X connect 46 0 1 0;
#X connect 47 0 1 0;
#X connect 48 0 1 0;
#X connect 49 0 1 0;
#X connect 50 0 1 0;
#X connect 51 0 1 0;
#X connect 52 0 1 0;
#X connect 53 0 1 0;
#X connect 54 0 1 0;
#X connect 55 0 1 0;
#X connect 56 0 1 0;
#X connect 57 0 1 0;
#X connect 58 0 1 0;
#X connect 59 0 1 0;
#X connect 60 0 1 0;
#X connect 61 0 1 0;
#X connect 62 0 1 0;
#X connect 63 0 1 0;
#X connect 64 0 1 0;
#X connect 65 0 1 0;
#X connect 66 0 1 0;
#X connect 67 0 1 0;
#X connect 68 0 1 0;
#X connect 69 0 1 0;
#X connect 70 0 1 0;
#X connect 71 0 1 0;
#X connect 72 0 1 0;
#X connect 73 0 1 0;
#X connect 74 0 1 0;
#X connect 75 0 1 0;
#X restore 823 111 pd chordname;
#N canvas 138 50 1280 717 chordname 0;
#X obj 71 -73 inlet;
#X obj 521 581 outlet;
#X obj 71 -19 sel 0 1 2 3 4 5 6 7 8 9 10 11 12 13 14 15 16 17 18 19
20 21 22 23 24 25 26 27 28 29 30 31 32 33 34 35 36 37 38 39 40 41 42
43 44 45 46 47 48 49 50 51 52 53 54 55 56 57 58 59 60 61 62 63 64 65
66 67 68 69 70 71;
#X obj 71 -47 drip;
#X msg 161 152 Db:min;
#X msg 71 92 C:maj;
#X msg 161 92 Db:maj;
#X msg 251 92 D:maj;
#X msg 341 92 Eb:maj;
#X msg 431 92 E:maj;
#X msg 521 92 F:maj;
#X msg 611 92 Gb:maj;
#X msg 701 92 G:maj;
#X msg 791 92 Ab:maj;
#X msg 881 92 A:maj;
#X msg 971 92 Bb:maj;
#X msg 1061 92 B:maj;
#X msg 1101 152 B:min;
#X msg 972 152 Bb:min;
#X msg 881 152 A:min;
#X msg 791 152 Ab:min;
#X msg 701 152 G:min;
#X msg 611 152 Gb:min;
#X msg 521 152 F:min;
#X msg 431 152 E:min;
#X msg 341 152 Eb:min;
#X msg 251 152 D:min;
#X msg 72 152 C:min;
#X msg 71 210 C:aug;
#X msg 71 272 C:dim;
#X msg 71 332 C:sus4;
#X msg 71 392 C:7;
#X msg 161 392 Db:7;
#X msg 251 392 D:7;
#X msg 341 392 Eb:7;
#X msg 431 392 E:7;
#X msg 521 392 F:7;
#X msg 611 392 Gb:7;
#X msg 701 392 G:7;
#X msg 791 392 Ab:7;
#X msg 881 392 A:7;
#X msg 971 392 Bb:7;
#X msg 1061 392 B:7;
#X msg 1061 332 B:sus4;
#X msg 971 332 Bb:sus4;
#X msg 881 332 A:sus4;
#X msg 791 332 Ab:sus4;
#X msg 701 332 G:sus4;
#X msg 611 331 Gb:sus4;
#X msg 521 332 F:sus4;
#X msg 431 332 E:sus4;
#X msg 341 332 Eb:sus4;
#X msg 251 332 D:sus4;
#X msg 161 332 Db:sus4;
#X msg 161 272 Db:dim;
#X msg 161 210 Db:aug;
#X msg 251 210 D:aug;
#X msg 341 210 Eb:aug;
#X msg 431 210 E:aug;
#X msg 521 210 F:aug;
#X msg 611 210 Gb:aug;
#X msg 701 210 G:aug;
#X msg 791 210 Ab:aug;
#X msg 881 210 A:aug;
#X msg 971 210 Bb:aug;
#X msg 1061 210 B:aug;
#X msg 1061 272 B:dim;
#X msg 971 272 Bb:dim;
#X msg 881 272 A:dim;
#X msg 791 271 Ab:dim;
#X msg 701 272 G:dim;
#X msg 611 272 Gb:dim;
#X msg 521 272 F:dim;
#X msg 431 272 E:dim;
#X msg 341 272 Eb:dim;
#X msg 251 272 D:dim;
#X connect 0 0 3 0;
#X connect 2 0 5 0;
#X connect 2 1 6 0;
#X connect 2 2 7 0;
#X connect 2 3 8 0;
#X connect 2 4 9 0;
#X connect 2 5 10 0;
#X connect 2 6 11 0;
#X connect 2 7 12 0;
#X connect 2 8 13 0;
#X connect 2 9 14 0;
#X connect 2 10 15 0;
#X connect 2 11 16 0;
#X connect 2 12 27 0;
#X connect 2 13 4 0;
#X connect 2 14 26 0;
#X connect 2 15 25 0;
#X connect 2 16 24 0;
#X connect 2 17 23 0;
#X connect 2 18 22 0;
#X connect 2 19 21 0;
#X connect 2 20 20 0;
#X connect 2 21 19 0;
#X connect 2 22 18 0;
#X connect 2 23 17 0;
#X connect 2 24 28 0;
#X connect 2 25 55 0;
#X connect 2 26 56 0;
#X connect 2 27 57 0;
#X connect 2 28 58 0;
#X connect 2 29 59 0;
#X connect 2 30 60 0;
#X connect 2 31 61 0;
#X connect 2 32 62 0;
#X connect 2 33 63 0;
#X connect 2 34 64 0;
#X connect 2 35 65 0;
#X connect 2 36 29 0;
#X connect 2 37 54 0;
#X connect 2 38 75 0;
#X connect 2 39 74 0;
#X connect 2 40 73 0;
#X connect 2 41 72 0;
#X connect 2 42 71 0;
#X connect 2 43 70 0;
#X connect 2 44 69 0;
#X connect 2 45 68 0;
#X connect 2 46 67 0;
#X connect 2 47 66 0;
#X connect 2 48 30 0;
#X connect 2 49 53 0;
#X connect 2 50 52 0;
#X connect 2 51 51 0;
#X connect 2 52 50 0;
#X connect 2 53 49 0;
#X connect 2 54 48 0;
#X connect 2 55 47 0;
#X connect 2 56 46 0;
#X connect 2 57 45 0;
#X connect 2 58 44 0;
#X connect 2 59 43 0;
#X connect 2 60 31 0;
#X connect 2 61 32 0;
#X connect 2 62 33 0;
#X connect 2 63 34 0;
#X connect 2 64 35 0;
#X connect 2 65 36 0;
#X connect 2 66 37 0;
#X connect 2 67 38 0;
#X connect 2 68 39 0;
#X connect 2 69 40 0;
#X connect 2 70 41 0;
#X connect 2 71 42 0;
#X connect 3 0 2 0;
#X connect 4 0 1 0;
#X connect 5 0 1 0;
#X connect 6 0 1 0;
#X connect 7 0 1 0;
#X connect 8 0 1 0;
#X connect 9 0 1 0;
#X connect 10 0 1 0;
#X connect 11 0 1 0;
#X connect 12 0 1 0;
#X connect 13 0 1 0;
#X connect 14 0 1 0;
#X connect 15 0 1 0;
#X connect 16 0 1 0;
#X connect 17 0 1 0;
#X connect 18 0 1 0;
#X connect 19 0 1 0;
#X connect 20 0 1 0;
#X connect 21 0 1 0;
#X connect 22 0 1 0;
#X connect 23 0 1 0;
#X connect 24 0 1 0;
#X connect 25 0 1 0;
#X connect 26 0 1 0;
#X connect 27 0 1 0;
#X connect 28 0 1 0;
#X connect 29 0 1 0;
#X connect 30 0 1 0;
#X connect 31 0 1 0;
#X connect 32 0 1 0;
#X connect 33 0 1 0;
#X connect 34 0 1 0;
#X connect 35 0 1 0;
#X connect 36 0 1 0;
#X connect 37 0 1 0;
#X connect 38 0 1 0;
#X connect 39 0 1 0;
#X connect 40 0 1 0;
#X connect 41 0 1 0;
#X connect 42 0 1 0;
#X connect 43 0 1 0;
#X connect 44 0 1 0;
#X connect 45 0 1 0;
#X connect 46 0 1 0;
#X connect 47 0 1 0;
#X connect 48 0 1 0;
#X connect 49 0 1 0;
#X connect 50 0 1 0;
#X connect 51 0 1 0;
#X connect 52 0 1 0;
#X connect 53 0 1 0;
#X connect 54 0 1 0;
#X connect 55 0 1 0;
#X connect 56 0 1 0;
#X connect 57 0 1 0;
#X connect 58 0 1 0;
#X connect 59 0 1 0;
#X connect 60 0 1 0;
#X connect 61 0 1 0;
#X connect 62 0 1 0;
#X connect 63 0 1 0;
#X connect 64 0 1 0;
#X connect 65 0 1 0;
#X connect 66 0 1 0;
#X connect 67 0 1 0;
#X connect 68 0 1 0;
#X connect 69 0 1 0;
#X connect 70 0 1 0;
#X connect 71 0 1 0;
#X connect 72 0 1 0;
#X connect 73 0 1 0;
#X connect 74 0 1 0;
#X connect 75 0 1 0;
#X restore 1030 510 pd chordname;
#X obj 105 218 list-abs/list-wrandom;
#X obj 330 648 list-abs/list-add;
#X obj 330 627 list-abs/list-math mod 12;
#X obj 330 605 list-abs/list-math +;
#X obj 357 540 list-abs/list-math * 12;
#X obj 357 513 list-abs/list-math div 12;
#X obj 127 513 list-abs/list-math div 12;
#X obj 127 540 list-abs/list-math * 12;
#X obj 100 585 list-abs/list-math +;
#X obj 100 628 list-abs/list-add;
#X obj 100 607 list-abs/list-math mod 12;
#X obj 205 262 list prepend;
#X obj 1030 534 list prepend :||;
#X connect 0 0 38 0;
#X connect 0 1 39 0;
#X connect 1 0 2 0;
#X connect 1 1 123 1;
#X connect 2 0 3 0;
#X connect 2 1 4 0;
#X connect 3 0 8 1;
#X connect 4 0 8 1;
#X connect 5 0 42 0;
#X connect 7 0 9 0;
#X connect 8 0 10 0;
#X connect 9 0 42 0;
#X connect 9 1 123 0;
#X connect 10 0 6 0;
#X connect 10 1 138 0;
#X connect 11 0 12 0;
#X connect 11 1 14 1;
#X connect 11 1 15 1;
#X connect 12 0 13 0;
#X connect 13 0 15 1;
#X connect 13 0 14 0;
#X connect 14 0 21 0;
#X connect 15 0 11 0;
#X connect 16 1 15 0;
#X connect 17 0 18 0;
#X connect 18 0 22 0;
#X connect 18 1 19 0;
#X connect 18 1 17 1;
#X connect 19 0 25 0;
#X connect 20 0 41 0;
#X connect 21 0 85 0;
#X connect 21 1 109 0;
#X connect 22 0 24 0;
#X connect 23 0 22 1;
#X connect 24 0 107 0;
#X connect 24 1 27 0;
#X connect 25 0 23 0;
#X connect 25 1 26 0;
#X connect 26 0 24 1;
#X connect 27 0 32 0;
#X connect 28 0 64 0;
#X connect 29 0 16 0;
#X connect 29 1 17 0;
#X connect 30 0 138 1;
#X connect 31 0 138 1;
#X connect 32 0 33 0;
#X connect 34 0 86 0;
#X connect 35 0 52 0;
#X connect 35 1 51 0;
#X connect 35 2 113 0;
#X connect 36 0 28 1;
#X connect 38 0 40 0;
#X connect 39 0 40 0;
#X connect 40 0 127 1;
#X connect 42 0 127 0;
#X connect 43 0 5 0;
#X connect 44 0 8 0;
#X connect 45 0 17 1;
#X connect 46 0 31 0;
#X connect 47 0 56 0;
#X connect 48 0 50 0;
#X connect 49 0 71 0;
#X connect 49 1 28 0;
#X connect 50 0 94 0;
#X connect 51 0 58 0;
#X connect 52 0 58 0;
#X connect 53 0 51 1;
#X connect 54 0 52 1;
#X connect 55 0 58 1;
#X connect 56 0 34 0;
#X connect 56 1 58 1;
#X connect 57 0 59 0;
#X connect 58 0 55 0;
#X connect 58 0 57 1;
#X connect 60 0 61 0;
#X connect 60 0 68 0;
#X connect 61 0 60 1;
#X connect 62 0 60 1;
#X connect 63 0 69 1;
#X connect 64 0 125 0;
#X connect 64 1 63 0;
#X connect 65 0 49 0;
#X connect 66 0 101 0;
#X connect 66 0 102 0;
#X connect 67 0 69 0;
#X connect 68 0 67 0;
#X connect 68 1 66 1;
#X connect 69 0 70 0;
#X connect 70 0 66 0;
#X connect 71 0 78 0;
#X connect 72 0 73 0;
#X connect 73 0 88 0;
#X connect 74 0 75 0;
#X connect 74 0 81 0;
#X connect 75 0 74 1;
#X connect 76 0 74 1;
#X connect 77 0 82 1;
#X connect 78 0 124 0;
#X connect 78 1 77 0;
#X connect 79 0 96 0;
#X connect 79 0 98 0;
#X connect 80 0 82 0;
#X connect 81 0 80 0;
#X connect 81 1 79 1;
#X connect 82 0 83 0;
#X connect 83 0 79 0;
#X connect 84 0 71 1;
#X connect 85 0 20 0;
#X connect 86 0 35 0;
#X connect 87 0 1 0;
#X connect 89 0 90 0;
#X connect 90 0 91 0;
#X connect 92 0 93 0;
#X connect 93 0 95 0;
#X connect 96 0 97 0;
#X connect 97 0 72 0;
#X connect 97 0 119 0;
#X connect 98 0 99 0;
#X connect 99 0 89 0;
#X connect 99 0 120 0;
#X connect 100 0 48 0;
#X connect 100 0 121 0;
#X connect 101 0 100 0;
#X connect 102 0 118 0;
#X connect 103 0 105 0;
#X connect 104 0 92 0;
#X connect 104 0 122 0;
#X connect 105 0 104 1;
#X connect 106 0 130 1;
#X connect 107 0 130 0;
#X connect 107 1 132 0;
#X connect 108 0 135 1;
#X connect 109 0 135 0;
#X connect 109 1 133 0;
#X connect 111 0 113 1;
#X connect 112 0 114 0;
#X connect 113 0 112 0;
#X connect 114 0 57 0;
#X connect 114 1 58 0;
#X connect 115 0 117 1;
#X connect 116 0 126 0;
#X connect 117 0 116 0;
#X connect 118 0 104 0;
#X connect 118 1 117 0;
#X connect 123 0 0 0;
#X connect 124 0 74 0;
#X connect 125 0 60 0;
#X connect 126 0 139 0;
#X connect 127 0 10 0;
#X connect 128 0 37 0;
#X connect 129 0 128 0;
#X connect 130 0 129 0;
#X connect 131 0 128 1;
#X connect 132 0 131 0;
#X connect 133 0 134 0;
#X connect 134 0 136 1;
#X connect 135 0 137 0;
#X connect 136 0 110 0;
#X connect 137 0 136 0;
#X connect 138 0 29 0;
#X connect 139 0 103 0;
#X restore 17 96 pd generate_song;
#N canvas 1228 332 578 984 midi-fake-guitar 0;
#X obj 101 533 t l b;
#X obj 175 601 f 6;
#X obj 207 601 - 1;
#X obj 130 643 pack f f;
#X msg 130 797 \$2 \$1;
#X obj 190 580 f;
#X obj 175 621 abs;
#X obj 101 177 f 0;
#X obj 132 177 + 1;
#X obj 101 198 mod 8;
#X obj 101 221 t f f;
#X obj 101 357 + 1;
#X obj 101 415 list 0 48 52 55 60 64;
#X obj 283 425 l2s;
#X symbolatom 283 449 20 0 0 0 - - -;
#X obj 101 461 list prepend;
#X obj 170 440 == 6;
#X obj 101 483 route 1 0;
#X obj 130 668 relay 0;
#X obj 101 584 t f b;
#X msg 128 153 0;
#X obj 101 560 drip 0;
#X obj 196 747 fifop;
#X obj 169 691 t b a;
#X obj 196 769 t a b;
#X obj 128 133 sel 0;
#X obj 152 65 /;
#X msg 152 42 60000 \$1;
#X obj 152 88 * 0.5;
#X obj 101 110 metro 240;
#X obj 168 111 s quaver;
#X obj 287 695 / 6;
#X obj 287 670 r quaver;
#X obj 256 768 clip 0 40;
#X obj 280 716 t b f;
#X obj 256 746 f;
#X obj 223 791 del 15;
#N canvas 637 341 653 377 strings_out 0;
#X msg 66 285 \$1 0;
#X obj 27 19 inlet;
#X obj 27 41 route 6 5 4 3 2 1, f 81;
#X obj 27 203 t f l b;
#X obj 66 262 f 0;
#X obj 46 311 noteout 6;
#X obj 578 44 inlet;
#X obj 27 176 pack 0 80;
#X obj 127 176 pack 0 80;
#X obj 227 176 pack 0 80;
#X obj 327 176 pack 0 80;
#X obj 427 175 pack 0 80;
#X obj 527 177 pack 0 80;
#X obj 7 261 route 0;
#X msg 166 285 \$1 0;
#X obj 127 203 t f l b;
#X obj 166 262 f 0;
#X obj 107 261 route 0;
#X msg 266 285 \$1 0;
#X obj 227 203 t f l b;
#X obj 266 262 f 0;
#X obj 207 261 route 0;
#X msg 366 285 \$1 0;
#X obj 327 203 t f l b;
#X obj 366 262 f 0;
#X obj 307 261 route 0;
#X msg 466 285 \$1 0;
#X obj 427 203 t f l b;
#X obj 466 262 f 0;
#X obj 407 261 route 0;
#X msg 566 285 \$1 0;
#X obj 527 203 t f l b;
#X obj 566 262 f 0;
#X obj 507 261 route 0;
#X obj 146 311 noteout 5;
#X obj 246 311 noteout 4;
#X obj 346 311 noteout 3;
#X obj 446 311 noteout 2;
#X obj 546 311 noteout 1;
#X connect 0 0 5 0;
#X connect 1 0 2 0;
#X connect 2 0 7 0;
#X connect 2 1 8 0;
#X connect 2 2 9 0;
#X connect 2 3 10 0;
#X connect 2 4 11 0;
#X connect 2 5 12 0;
#X connect 3 0 4 1;
#X connect 3 1 13 0;
#X connect 3 2 4 0;
#X connect 4 0 0 0;
#X connect 6 0 7 1;
#X connect 6 0 8 1;
#X connect 6 0 9 1;
#X connect 6 0 10 1;
#X connect 6 0 11 1;
#X connect 6 0 12 1;
#X connect 7 0 3 0;
#X connect 8 0 15 0;
#X connect 9 0 19 0;
#X connect 10 0 23 0;
#X connect 11 0 27 0;
#X connect 12 0 31 0;
#X connect 13 1 5 0;
#X connect 14 0 34 0;
#X connect 15 0 16 1;
#X connect 15 1 17 0;
#X connect 15 2 16 0;
#X connect 16 0 14 0;
#X connect 17 1 34 0;
#X connect 18 0 35 0;
#X connect 19 0 20 1;
#X connect 19 1 21 0;
#X connect 19 2 20 0;
#X connect 20 0 18 0;
#X connect 21 1 35 0;
#X connect 22 0 36 0;
#X connect 23 0 24 1;
#X connect 23 1 25 0;
#X connect 23 2 24 0;
#X connect 24 0 22 0;
#X connect 25 1 36 0;
#X connect 26 0 37 0;
#X connect 27 0 28 1;
#X connect 27 1 29 0;
#X connect 27 2 28 0;
#X connect 28 0 26 0;
#X connect 29 1 37 0;
#X connect 30 0 38 0;
#X connect 31 0 32 1;
#X connect 31 1 33 0;
#X connect 31 2 32 0;
#X connect 32 0 30 0;
#X connect 33 1 38 0;
#X restore 167 826 pd strings_out;
#N canvas 733 246 1827 499 guitar_chords 0;
#X obj 16 73 div 12;
#X obj 68 73 mod 12;
#X obj 16 46 t f f;
#X obj 47 100 pack;
#X obj 47 123 route 0 1 2 3 4 5;
#X obj 80 209 s aug;
#X obj 47 249 s maj;
#X obj 63 229 s min;
#X obj 96 189 s dim;
#X obj 113 169 s sus4;
#X obj 129 147 s 7th;
#X obj 191 17 r maj;
#X obj 191 40 select 0 1 2 3 4 5 6 7 8 9 10 11;
#X obj 65 315 outlet;
#X obj 65 293 r chord;
#X obj 16 23 inlet;
#X msg 364 65 \; chord 0 47 54 59 63 66;
#X msg 191 432 \; chord 0 48 52 55 60 64;
#X msg 206 399 \; chord 0 49 53 56 61 65;
#X msg 222 366 \; chord 0 0 50 57 62 66;
#X msg 238 332 \; chord 0 0 51 58 63 67;
#X msg 254 299 \; chord 40 47 52 56 59 64;
#X msg 269 265 \; chord 41 48 53 57 60 65;
#X msg 285 232 \; chord 42 49 54 58 61 66;
#X msg 301 199 \; chord 43 47 50 55 59 67;
#X msg 332 132 \; chord 0 45 52 57 61 64;
#X msg 348 98 \; chord 0 46 53 58 62 65;
#X obj 511 40 select 0 1 2 3 4 5 6 7 8 9 10 11;
#X obj 511 17 r min;
#X msg 684 65 \; chord 0 47 54 59 62 66;
#X msg 668 98 \; chord 0 46 53 58 61 65;
#X msg 652 132 \; chord 0 45 52 57 60 64;
#X msg 511 432 \; chord 0 48 55 60 63 67;
#X msg 542 366 \; chord 0 0 50 57 62 65;
#X msg 558 332 \; chord 0 0 51 58 63 66;
#X msg 526 399 \; chord 0 49 56 61 64 68;
#X msg 574 299 \; chord 40 47 52 55 59 64;
#X msg 589 265 \; chord 41 48 53 56 60 65;
#X msg 605 232 \; chord 42 49 54 57 61 66;
#X msg 621 198 \; chord 43 50 55 58 62 67;
#X msg 637 166 \; chord 44 51 56 59 63 68;
#X obj 832 37 select 0 1 2 3 4 5 6 7 8 9 10 11;
#X obj 832 14 r 7th;
#X msg 832 429 \; chord 0 48 52 58 60 64;
#X msg 847 396 \; chord 0 49 56 59 65 68;
#X msg 863 363 \; chord 0 0 50 57 60 66;
#X msg 879 329 \; chord 0 0 51 58 61 67;
#X msg 895 296 \; chord 40 47 50 56 59 64;
#X msg 910 262 \; chord 41 48 51 57 60 65;
#X msg 926 229 \; chord 42 49 52 58 61 66;
#X msg 942 196 \; chord 43 47 50 55 59 65;
#X msg 317 164 \; chord 44 51 56 60 63 68;
#X msg 958 163 \; chord 44 51 54 60 63 68;
#X msg 973 129 \; chord 0 45 52 55 61 64;
#X msg 989 95 \; chord 0 46 53 56 62 65;
#X msg 1005 62 \; chord 0 47 54 57 63 66;
#X obj 1151 38 select 0 1 2 3 4 5 6 7 8 9 10 11;
#X msg 1324 63 \; chord 0 47 54 59 63 66;
#X msg 1151 430 \; chord 0 48 52 55 60 64;
#X msg 1166 397 \; chord 0 49 53 56 61 65;
#X msg 1182 364 \; chord 0 0 50 57 62 66;
#X msg 1198 330 \; chord 0 0 51 58 63 67;
#X msg 1214 297 \; chord 40 47 52 56 59 64;
#X msg 1229 263 \; chord 41 48 53 57 60 65;
#X msg 1245 230 \; chord 42 49 54 58 61 66;
#X msg 1261 197 \; chord 43 47 50 55 59 67;
#X msg 1292 130 \; chord 0 45 52 57 61 64;
#X msg 1308 96 \; chord 0 46 53 58 62 65;
#X obj 1471 38 select 0 1 2 3 4 5 6 7 8 9 10 11;
#X msg 1644 63 \; chord 0 47 54 59 62 66;
#X msg 1628 96 \; chord 0 46 53 58 61 65;
#X msg 1612 130 \; chord 0 45 52 57 60 64;
#X msg 1471 430 \; chord 0 48 55 60 63 67;
#X msg 1502 364 \; chord 0 0 50 57 62 65;
#X msg 1518 330 \; chord 0 0 51 58 63 66;
#X msg 1486 397 \; chord 0 49 56 61 64 68;
#X msg 1534 297 \; chord 40 47 52 55 59 64;
#X msg 1549 263 \; chord 41 48 53 56 60 65;
#X msg 1565 230 \; chord 42 49 54 57 61 66;
#X msg 1581 196 \; chord 43 50 55 58 62 67;
#X msg 1597 164 \; chord 44 51 56 59 63 68;
#X msg 1277 162 \; chord 44 51 56 60 63 68;
#X obj 1151 15 r aug;
#X obj 1471 15 r dim;
#X connect 0 0 3 0;
#X connect 1 0 3 1;
#X connect 2 0 0 0;
#X connect 2 1 1 0;
#X connect 3 0 4 0;
#X connect 4 0 6 0;
#X connect 4 1 7 0;
#X connect 4 2 5 0;
#X connect 4 3 8 0;
#X connect 4 4 9 0;
#X connect 4 5 10 0;
#X connect 11 0 12 0;
#X connect 12 0 17 0;
#X connect 12 1 18 0;
#X connect 12 2 19 0;
#X connect 12 3 20 0;
#X connect 12 4 21 0;
#X connect 12 5 22 0;
#X connect 12 6 23 0;
#X connect 12 7 24 0;
#X connect 12 8 51 0;
#X connect 12 9 25 0;
#X connect 12 10 26 0;
#X connect 12 11 16 0;
#X connect 14 0 13 0;
#X connect 15 0 2 0;
#X connect 27 0 32 0;
#X connect 27 1 35 0;
#X connect 27 2 33 0;
#X connect 27 3 34 0;
#X connect 27 4 36 0;
#X connect 27 5 37 0;
#X connect 27 6 38 0;
#X connect 27 7 39 0;
#X connect 27 8 40 0;
#X connect 27 9 31 0;
#X connect 27 10 30 0;
#X connect 27 11 29 0;
#X connect 28 0 27 0;
#X connect 41 0 43 0;
#X connect 41 1 44 0;
#X connect 41 2 45 0;
#X connect 41 3 46 0;
#X connect 41 4 47 0;
#X connect 41 5 48 0;
#X connect 41 6 49 0;
#X connect 41 7 50 0;
#X connect 41 8 52 0;
#X connect 41 9 53 0;
#X connect 41 10 54 0;
#X connect 41 11 55 0;
#X connect 42 0 41 0;
#X connect 56 0 58 0;
#X connect 56 1 59 0;
#X connect 56 2 60 0;
#X connect 56 3 61 0;
#X connect 56 4 62 0;
#X connect 56 5 63 0;
#X connect 56 6 64 0;
#X connect 56 7 65 0;
#X connect 56 8 81 0;
#X connect 56 9 66 0;
#X connect 56 10 67 0;
#X connect 56 11 57 0;
#X connect 68 0 72 0;
#X connect 68 1 75 0;
#X connect 68 2 73 0;
#X connect 68 3 74 0;
#X connect 68 4 76 0;
#X connect 68 5 77 0;
#X connect 68 6 78 0;
#X connect 68 7 79 0;
#X connect 68 8 80 0;
#X connect 68 9 71 0;
#X connect 68 10 70 0;
#X connect 68 11 69 0;
#X connect 82 0 56 0;
#X connect 83 0 68 0;
#X restore 283 398 pd guitar_chords;
#X obj 256 645 r strumming_speed;
#X obj 101 61 r play;
#X obj 152 21 r tempo;
#X obj 28 177 ctlout 123;
#X msg 28 153 123;
#X obj 28 130 sel 0;
#X obj 304 239 r complete_song;
#X obj 283 310 list split 1;
#X obj 283 288 list;
#X obj 317 333 route bang;
#X obj 317 376 s set-play;
#X msg 317 354 0;
#X obj 128 242 sel 0;
#X obj 304 264 list;
#X obj 101 85 t f f;
#N canvas 256 128 812 566 strumming 0;
#X obj 14 63 sel 1 2 3 4 5 6 7 8;
#X obj 14 40 inlet;
#X text 617 121 d - down;
#X text 617 161 r - let ring;
#X text 617 141 u - up;
#X text 617 181 dx - down mute;
#X text 617 201 ux - up mute;
#X text 118 269 with "r" we do nothing and let it ring...;
#X obj 14 270 sel d u dx ux r;
#X msg 214 426 6;
#X msg 250 426 -1;
#X obj 394 45 inlet;
#X msg 457 425 0;
#X obj 14 326 t b b b;
#X obj 64 326 t b b b;
#X obj 114 326 t b b b;
#X obj 164 326 t b b b;
#X obj 14 458 outlet;
#X obj 214 458 outlet;
#X text 60 457 bang to get chord;
#X text 261 456 up or down;
#X obj 394 458 outlet;
#X text 441 456 velocity;
#X obj 537 144 r str8;
#X obj 47 145 r str1;
#X obj 117 145 r str2;
#X obj 187 145 r str3;
#X obj 467 145 r str7;
#X obj 397 145 r str6;
#X obj 328 145 r str5;
#X obj 255 145 r str4;
#X obj 14 178 symbol;
#X obj 84 178 symbol;
#X obj 154 178 symbol;
#X obj 222 178 symbol;
#X obj 295 178 symbol;
#X obj 364 178 symbol;
#X obj 434 178 symbol;
#X obj 504 178 symbol;
#X obj 394 423 f 100;
#X connect 0 0 31 0;
#X connect 0 1 32 0;
#X connect 0 2 33 0;
#X connect 0 3 34 0;
#X connect 0 4 35 0;
#X connect 0 5 36 0;
#X connect 0 6 37 0;
#X connect 0 7 38 0;
#X connect 1 0 0 0;
#X connect 8 0 13 0;
#X connect 8 1 14 0;
#X connect 8 2 15 0;
#X connect 8 3 16 0;
#X connect 9 0 18 0;
#X connect 10 0 18 0;
#X connect 11 0 39 0;
#X connect 12 0 21 0;
#X connect 13 0 17 0;
#X connect 13 1 9 0;
#X connect 13 2 39 0;
#X connect 14 0 17 0;
#X connect 14 1 10 0;
#X connect 14 2 39 0;
#X connect 15 0 17 0;
#X connect 15 1 9 0;
#X connect 15 2 12 0;
#X connect 16 0 17 0;
#X connect 16 1 10 0;
#X connect 16 2 12 0;
#X connect 23 0 38 1;
#X connect 24 0 31 1;
#X connect 25 0 32 1;
#X connect 26 0 33 1;
#X connect 27 0 37 1;
#X connect 28 0 36 1;
#X connect 29 0 35 1;
#X connect 30 0 34 1;
#X connect 31 0 8 0;
#X connect 32 0 8 0;
#X connect 33 0 8 0;
#X connect 34 0 8 0;
#X connect 35 0 8 0;
#X connect 36 0 8 0;
#X connect 37 0 8 0;
#X connect 38 0 8 0;
#X connect 39 0 21 0;
#X restore 100 388 pd strumming pattern ----;
#X obj 169 717 iemlib/once;
#X obj 126 506 list-abs/list-rev;
#X connect 0 0 21 0;
#X connect 0 1 5 0;
#X connect 1 0 2 0;
#X connect 1 0 6 0;
#X connect 2 0 1 1;
#X connect 3 0 18 0;
#X connect 4 0 37 0;
#X connect 5 0 1 1;
#X connect 6 0 3 1;
#X connect 7 0 8 0;
#X connect 7 0 9 0;
#X connect 8 0 7 1;
#X connect 9 0 10 0;
#X connect 10 0 11 0;
#X connect 10 1 51 0;
#X connect 11 0 54 0;
#X connect 12 0 15 0;
#X connect 13 0 14 0;
#X connect 15 0 17 0;
#X connect 16 0 15 1;
#X connect 17 0 0 0;
#X connect 17 1 56 0;
#X connect 18 0 4 0;
#X connect 18 1 23 0;
#X connect 19 0 3 0;
#X connect 19 1 1 0;
#X connect 20 0 7 1;
#X connect 21 0 19 0;
#X connect 22 0 24 0;
#X connect 22 1 55 1;
#X connect 23 0 55 0;
#X connect 23 1 22 0;
#X connect 24 0 4 0;
#X connect 24 1 36 0;
#X connect 25 0 20 0;
#X connect 26 0 28 0;
#X connect 27 0 26 0;
#X connect 28 0 29 1;
#X connect 28 0 30 0;
#X connect 29 0 7 0;
#X connect 31 0 34 0;
#X connect 32 0 31 0;
#X connect 33 0 36 1;
#X connect 34 0 35 0;
#X connect 34 1 33 2;
#X connect 35 0 33 0;
#X connect 36 0 22 0;
#X connect 38 0 13 0;
#X connect 38 0 12 1;
#X connect 39 0 35 0;
#X connect 40 0 44 0;
#X connect 40 0 53 0;
#X connect 41 0 27 0;
#X connect 43 0 42 0;
#X connect 44 0 43 0;
#X connect 45 0 52 0;
#X connect 46 0 38 0;
#X connect 46 1 47 1;
#X connect 46 1 48 0;
#X connect 47 0 46 0;
#X connect 48 0 50 0;
#X connect 50 0 49 0;
#X connect 51 0 47 0;
#X connect 52 0 47 1;
#X connect 53 0 29 0;
#X connect 53 1 25 0;
#X connect 54 0 12 0;
#X connect 54 1 16 0;
#X connect 54 1 5 1;
#X connect 54 2 37 1;
#X connect 55 0 22 0;
#X connect 56 0 0 0;
#X restore 120 96 pd midi-fake-guitar;
#N canvas 150 658 489 503 loadbangs 0;
#X obj 30 18 loadbang;
#X obj 30 327 delay 500;
#X obj 30 349 s load-tables;
#X obj 38 280 delay 600;
#X obj 38 302 s set-make_song;
#X msg 30 41 bang \; verse1_canvas color 1 \, label_pos 5 15 \, vis_size
770 30 \; chorus1_canvas color 1 \, label_pos 5 15 \, vis_size 770
30 \; verse2_canvas color 1 \, label_pos 5 15 \, vis_size 770 30 \;
chorus2_canvas color 1 \, label_pos 5 15 \, vis_size 770 30 \; set-key_root
0 \; set-key_mode 0 \; set-str1 symbol d \; set-str2 symbol r \; set-str3
symbol d \; set-str4 symbol u \; set-str5 symbol r \; set-str6 symbol
u \; set-str7 symbol d \; set-str8 symbol u \; set-strumming_speed
6 \; set-tempo 160;
#X connect 0 0 5 0;
#X connect 1 0 2 0;
#X connect 3 0 4 0;
#X connect 5 0 1 0;
#X connect 5 0 3 0;
#X restore 17 16 pd loadbangs;
#N canvas 647 265 401 388 write_textfile 0;
#X obj 125 333 textfile;
#X msg 300 168 clear;
#X obj 125 128 list;
#X obj 140 158 list;
#X obj 156 188 list;
#X obj 172 218 list;
#X obj 125 302 prepend add;
#X obj 125 75 t b b b b b;
#X msg 24 116 write \$1 cr;
#X obj 24 58 t s b;
#X obj 146 106 r chorus2;
#X obj 161 136 r verse2;
#X obj 177 166 r chorus1;
#X obj 193 196 r verse1;
#X obj 24 37 savepanel ./;
#X obj 24 13 r write_song;
#X connect 1 0 0 0;
#X connect 2 0 6 0;
#X connect 3 0 6 0;
#X connect 4 0 6 0;
#X connect 5 0 6 0;
#X connect 6 0 0 0;
#X connect 7 0 2 0;
#X connect 7 1 3 0;
#X connect 7 2 4 0;
#X connect 7 3 5 0;
#X connect 7 4 1 0;
#X connect 8 0 0 0;
#X connect 9 0 8 0;
#X connect 9 1 7 0;
#X connect 10 0 2 1;
#X connect 11 0 3 1;
#X connect 12 0 4 1;
#X connect 13 0 5 1;
#X connect 14 0 9 0;
#X connect 15 0 14 0;
#X restore 17 116 pd write_textfile;
#X obj 226 16 declare -lib zexy;
#X obj 97 16 declare -lib cyclone;
#X restore 499 258 pd guts;
#X text 358 211 export song to textfile;
#X text 38 252 save analysis (to avoid analysing next time);
#X text 628 237 string i.o.t;
#X text 737 31 make;
